<?xml version="1.0" standalone="no"?>
<!DOCTYPE svg PUBLIC "-//W3C//DTD SVG 20010904//EN"
 "http://www.w3.org/TR/2001/REC-SVG-20010904/DTD/svg10.dtd">
<svg version="1.0" xmlns="http://www.w3.org/2000/svg"
 width="1024.000000pt" height="1024.000000pt" viewBox="0 0 1024.000000 1024.000000"
 preserveAspectRatio="xMidYMid meet">
<metadata>
Created by potrace 1.14, written by Peter Selinger 2001-2017
</metadata>
<g transform="translate(0.000000,1024.000000) scale(0.100000,-0.100000)"
fill="#000000" stroke="none">
<path d="M861 9107 c-41 -10 -73 -59 -76 -115 -2 -26 -3 -428 -4 -894 l-1
-848 -45 0 -45 0 0 -150 0 -150 28 -1 c167 -3 230 -7 239 -12 7 -4 15 -2 19 4
4 8 9 7 15 -2 6 -11 11 -11 20 -2 10 10 15 9 26 -5 12 -15 12 -15 7 0 -5 15
79 16 1160 15 l1166 -2 0 152 0 152 -57 3 -58 3 -1 895 c-1 843 -2 897 -19
923 -9 15 -27 30 -40 33 -40 10 -1404 10 -1398 0 4 -5 1 -6 -8 -1 -20 13 -49
13 -49 1 0 -8 -2 -8 -8 0 -9 13 -104 13 -114 -1 -5 -6 -8 -6 -8 1 0 12 -98 13
-116 1 -6 -3 -14 -3 -18 1 -10 9 -578 9 -615 -1z m1164 -1056 c6 -1 10 -10 9
-20 0 -12 6 -18 15 -16 9 1 23 -3 31 -9 13 -10 13 -9 1 6 -7 10 -17 15 -22 12
-5 -3 -9 1 -9 9 0 10 8 13 25 9 15 -2 22 -9 18 -16 -4 -7 -2 -7 7 1 7 7 21 9
34 4 11 -4 42 -6 68 -6 29 1 49 -4 52 -11 3 -7 0 -11 -7 -8 -7 2 -18 -5 -25
-16 -14 -23 -5 -27 12 -5 10 14 13 14 34 0 25 -18 29 -35 8 -35 -20 0 -27 -13
-14 -30 8 -12 9 -11 4 4 -5 13 -2 17 8 13 15 -6 30 18 21 33 -3 5 4 8 15 7 23
-2 27 -22 5 -31 -8 -3 -15 -11 -15 -18 0 -9 3 -8 10 2 9 13 14 7 11 -12 0 -5
4 -8 10 -8 6 0 8 7 5 16 -3 8 1 28 9 44 17 34 20 52 4 30 -9 -13 -10 -12 -5 2
3 10 1 20 -4 23 -6 4 -10 -3 -10 -15 0 -12 -4 -19 -10 -15 -5 3 -7 13 -4 23 4
10 3 13 -3 6 -4 -6 -16 -10 -25 -9 -11 2 -15 -2 -12 -13 4 -13 3 -13 -6 1 -16
25 -9 29 47 34 110 8 142 9 137 1 -3 -4 -18 -6 -34 -4 -33 4 -50 -11 -53 -43
-1 -12 -4 -21 -8 -21 -4 0 -6 -12 -4 -27 1 -15 -5 -38 -14 -52 -9 -14 -11 -22
-6 -19 6 4 16 -2 23 -13 13 -21 3 -26 -16 -7 -9 9 -15 9 -24 0 -9 -9 -8 -16 5
-29 9 -10 17 -12 17 -6 0 6 -6 13 -12 16 -7 2 -10 8 -6 12 4 4 14 3 21 -4 8
-6 23 -8 32 -4 12 4 16 3 11 -5 -4 -6 3 -16 16 -22 23 -11 23 -11 3 6 -17 14
-18 16 -2 10 12 -4 16 -2 11 6 -5 7 -3 8 6 3 9 -6 11 -4 5 5 -5 9 -4 11 4 6 6
-4 9 -12 6 -17 -4 -5 -1 -9 5 -9 7 0 9 7 6 16 -3 8 -2 12 4 9 5 -3 7 4 5 16
-3 13 0 28 5 34 6 8 5 18 -3 30 -12 15 -17 16 -36 5 -13 -6 -25 -9 -29 -6 -3
3 1 6 9 6 12 0 11 2 -1 11 -12 8 -9 9 10 5 14 -3 19 -3 12 0 -6 3 -9 10 -6 16
4 6 10 5 15 -3 4 -7 12 -10 16 -5 4 5 2 11 -5 13 -6 3 -10 8 -8 12 3 4 1 13
-3 20 -6 9 -11 10 -15 2 -4 -6 -2 -11 4 -11 6 0 8 -5 4 -11 -4 -8 -12 -3 -21
12 -8 13 -12 17 -10 8 3 -9 -1 -16 -8 -16 -10 0 -11 5 -5 17 6 11 19 16 37 14
15 -1 32 1 38 6 7 6 16 1 24 -13 11 -18 11 -20 0 -9 -18 16 -34 15 -20 -2 6
-7 9 -21 5 -29 -4 -12 -1 -15 16 -12 17 3 19 1 11 -9 -6 -7 -7 -17 -3 -21 4
-5 1 -5 -5 -1 -7 4 -13 2 -13 -3 0 -6 6 -11 13 -12 8 0 8 -2 -2 -6 -11 -5 -11
-7 0 -15 11 -7 9 -8 -4 -4 -12 4 -17 2 -14 -6 2 -7 13 -12 23 -10 16 2 17 1 4
-7 -8 -6 -11 -11 -6 -11 6 0 5 -5 -2 -12 -7 -7 -8 -16 -2 -23 5 -6 5 -16 -1
-25 -8 -12 -9 -11 -7 4 2 10 -3 21 -10 23 -7 3 -12 1 -11 -4 4 -23 -2 -35 -16
-29 -44 18 -48 16 -20 -11 17 -15 25 -24 19 -20 -20 13 -53 16 -59 6 -6 -9 7
-13 32 -10 17 2 25 -16 12 -25 -8 -5 -9 -3 -4 6 6 10 4 12 -10 7 -9 -4 -24 -2
-31 4 -10 8 -14 8 -14 1 0 -6 8 -16 18 -21 9 -6 12 -11 6 -11 -5 0 -15 5 -21
11 -8 8 -15 5 -25 -10 -10 -15 -21 -19 -33 -15 -15 6 -16 4 -6 -14 9 -17 8
-23 -6 -30 -10 -5 -24 -7 -30 -5 -7 3 -13 0 -13 -6 0 -6 6 -11 13 -11 6 0 4
-5 -6 -11 -9 -6 -14 -15 -11 -21 5 -7 2 -8 -6 -3 -10 6 -12 4 -7 -8 4 -12 2
-14 -10 -10 -10 4 -14 2 -9 -5 3 -6 1 -14 -5 -18 -8 -4 -9 -3 -5 4 4 7 2 12
-3 12 -6 0 -11 -6 -12 -12 0 -10 -2 -10 -5 -1 -4 8 -13 9 -30 3 -13 -5 -24 -6
-24 -2 0 4 -13 9 -29 10 -16 1 -48 9 -72 17 -61 22 -189 88 -189 98 0 5 18 81
41 170 22 89 42 168 43 176 1 7 13 20 27 28 23 13 23 14 2 8 -18 -5 -22 -3
-17 9 5 14 10 13 42 -3 21 -10 42 -20 47 -20z m458 2 c-3 -7 -6 -13 -8 -13 -2
0 -5 6 -8 13 -3 8 1 14 8 14 7 0 11 -6 8 -14z m-175 -56 c8 -10 6 -13 -7 -13
-11 0 -17 6 -14 13 3 7 6 13 8 13 1 0 7 -6 13 -13z m91 -38 c-7 -4 -14 -17
-16 -29 -2 -17 1 -21 19 -18 13 2 26 8 31 13 4 6 11 5 16 -5 6 -9 6 -19 0 -26
-5 -7 -8 -16 -7 -20 2 -5 0 -9 -3 -9 -3 0 -13 -6 -21 -13 -30 -25 -83 23 -58
53 7 8 10 20 7 27 -7 21 12 48 29 41 12 -4 13 -8 3 -14z m56 -239 c-3 -5 -12
-10 -18 -10 -7 0 -6 4 3 10 19 12 23 12 15 0z m-96 -36 c-6 -8 -15 -12 -18 -8
-3 4 0 9 7 11 6 3 9 10 6 15 -4 7 -2 8 5 4 9 -6 9 -11 0 -22z m49 14 c-2 -7 3
-12 10 -10 6 1 12 -2 12 -8 0 -5 -4 -10 -9 -10 -13 0 -32 26 -24 33 10 10 13
8 11 -5z m-68 -53 c-14 -17 -30 -20 -30 -4 0 5 4 8 9 4 5 -3 12 -1 16 5 3 5 9
10 12 10 3 0 0 -7 -7 -15z m-55 -35 c-3 -5 -12 -10 -18 -10 -7 0 -6 4 3 10 19
12 23 12 15 0z m22 -15 c0 -8 -4 -12 -9 -9 -5 3 -6 10 -3 15 9 13 12 11 12 -6z
m-44 -20 c-3 -9 -8 -14 -10 -11 -3 3 -2 9 2 15 9 16 15 13 8 -4z"/>
<path d="M1963 8054 c-7 -3 -9 -13 -6 -22 6 -14 4 -15 -8 -5 -13 10 -16 10
-16 -1 0 -14 41 -16 54 -2 4 5 2 6 -4 2 -8 -4 -13 -1 -13 8 0 21 14 20 31 -2
13 -16 13 -15 3 2 -12 22 -23 27 -41 20z"/>
<path d="M2360 8030 c-9 -6 -10 -10 -3 -10 6 0 15 5 18 10 8 12 4 12 -15 0z"/>
<path d="M2117 8019 c7 -7 15 -10 18 -7 3 3 -2 9 -12 12 -14 6 -15 5 -6 -5z"/>
<path d="M2155 8010 c-4 -6 -4 -14 -1 -17 3 -4 6 -1 6 5 0 7 5 12 11 12 5 0 7
-4 4 -10 -3 -5 -1 -10 5 -10 14 0 8 22 -7 27 -6 2 -14 -1 -18 -7z"/>
<path d="M2205 8009 c-4 -6 -5 -12 -2 -15 2 -3 7 2 10 11 7 17 1 20 -8 4z"/>
<path d="M1990 8001 c0 -6 4 -13 10 -16 6 -3 7 1 4 9 -7 18 -14 21 -14 7z"/>
<path d="M2446 7987 c3 -10 9 -15 12 -12 3 3 0 11 -7 18 -10 9 -11 8 -5 -6z"/>
<path d="M2070 7976 c7 -7 13 -7 20 0 6 6 3 10 -10 10 -13 0 -16 -4 -10 -10z"/>
<path d="M2113 7973 c0 -9 4 -10 14 -2 7 6 13 12 13 14 0 1 -6 2 -13 2 -8 0
-14 -6 -14 -14z"/>
<path d="M2160 7973 c0 -6 8 -17 18 -24 16 -13 16 -13 2 6 -8 11 -16 22 -17
24 -2 2 -3 0 -3 -6z"/>
<path d="M2245 7970 c3 -6 -2 -10 -12 -11 -10 0 -13 -3 -6 -5 7 -3 20 -1 29 4
15 8 15 9 0 15 -10 4 -15 3 -11 -3z"/>
<path d="M2456 7938 c3 -5 10 -6 15 -3 13 9 11 12 -6 12 -8 0 -12 -4 -9 -9z"/>
<path d="M2295 7901 c-9 -15 15 -25 28 -12 9 9 7 10 -7 5 -13 -5 -17 -4 -12 4
4 7 5 12 2 12 -3 0 -7 -4 -11 -9z"/>
<path d="M2255 7890 c-4 -6 -11 -8 -16 -5 -5 4 -9 1 -9 -4 0 -16 16 -13 30 4
7 8 10 15 7 15 -3 0 -9 -5 -12 -10z"/>
<path d="M2275 7871 c-9 -15 15 -25 28 -12 9 9 7 10 -7 5 -13 -5 -17 -4 -12 4
4 7 5 12 2 12 -3 0 -7 -4 -11 -9z"/>
<path d="M2235 7851 c-3 -5 -2 -12 3 -15 5 -3 9 1 9 9 0 17 -3 19 -12 6z"/>
<path d="M2463 7845 c0 -8 4 -12 9 -9 5 3 6 10 3 15 -9 13 -12 11 -12 -6z"/>
<path d="M2290 7823 c7 -3 5 -13 -7 -27 -9 -11 -12 -16 -4 -10 14 13 51 7 51
-8 0 -5 -4 -6 -10 -3 -6 4 -7 -1 -4 -12 5 -16 3 -15 -11 2 -16 19 -16 19 -11
-7 3 -21 1 -28 -11 -28 -9 0 -13 -6 -10 -15 4 -8 2 -17 -3 -20 -6 -4 -10 -1
-10 4 0 6 -8 11 -17 11 -17 -1 -17 -1 -1 -11 17 -9 15 -39 -3 -39 -4 0 -6 6
-3 14 3 7 -2 16 -12 20 -14 5 -15 4 -4 -9 10 -12 10 -15 -1 -15 -11 -1 -11 -2
1 -9 8 -5 26 -7 40 -6 14 2 29 4 33 4 4 1 4 9 -2 18 -7 13 -2 28 21 60 26 35
48 48 48 27 0 -3 -4 -2 -10 1 -5 3 -11 1 -11 -4 -1 -6 -2 -15 -3 -20 0 -5 -5
-13 -10 -18 -5 -5 -6 -2 -1 6 5 9 4 12 -3 7 -7 -4 -12 -15 -12 -24 1 -12 12
-5 35 23 19 22 40 39 47 37 8 -2 7 2 -2 12 -7 9 -9 16 -4 16 5 0 0 6 -10 12
-15 8 -21 7 -27 -5 -10 -16 -50 -12 -46 5 1 6 -4 12 -11 14 -7 1 -8 0 -2 -3z
m83 -46 c-3 -5 -10 -4 -15 1 -6 6 -7 16 -3 22 6 9 9 9 16 -1 4 -7 5 -17 2 -22z
m-93 -97 c0 -5 -5 -10 -11 -10 -5 0 -7 5 -4 10 3 6 8 10 11 10 2 0 4 -4 4 -10z"/>
<path d="M2427 7805 c3 -8 9 -12 14 -9 12 7 11 11 -5 17 -10 4 -13 1 -9 -8z"/>
<path d="M2215 7780 c3 -5 8 -10 11 -10 2 0 4 5 4 10 0 6 -5 10 -11 10 -5 0
-7 -4 -4 -10z"/>
<path d="M2271 7754 c0 -11 3 -14 6 -6 3 7 2 16 -1 19 -3 4 -6 -2 -5 -13z"/>
<path d="M2195 7648 c19 -11 19 -11 0 -19 -18 -7 -18 -8 -2 -8 10 -1 16 -5 12
-11 -3 -5 -12 -7 -19 -4 -7 3 -16 -2 -20 -11 -3 -9 -11 -13 -17 -9 -8 4 -9 3
-5 -5 6 -9 11 -9 21 -1 10 8 14 7 18 -2 4 -11 6 -10 6 0 1 7 5 11 10 8 4 -3
18 5 30 18 15 15 19 26 12 31 -6 3 -11 3 -11 0 0 -4 -7 1 -16 9 -8 9 -21 16
-27 16 -7 0 -3 -6 8 -12z m45 -23 c0 -1 -10 -10 -22 -21 -14 -12 -18 -13 -10
-3 6 9 10 18 7 21 -3 2 2 5 10 5 8 0 15 -1 15 -2z"/>
<path d="M2410 7897 c0 -5 -9 -6 -19 -2 -28 9 -34 -9 -9 -31 20 -18 30 -13 29
13 0 5 10 13 22 20 l22 12 -22 -2 c-13 -1 -23 -5 -23 -10z m-11 -16 c8 -5 9
-11 3 -15 -5 -3 -15 1 -22 9 -14 16 -3 20 19 6z"/>
<path d="M4033 9099 c-17 -5 -43 -23 -57 -40 l-26 -31 0 -895 c0 -493 2 -894
5 -891 3 3 7 409 8 903 l2 897 28 24 c15 13 39 24 53 24 13 0 24 5 24 10 0 6
-1 10 -2 9 -2 0 -17 -5 -35 -10z"/>
<path d="M4087 9098 c-7 -5 124 -8 291 -7 166 0 307 -3 314 -7 6 -4 8 -3 4 4
-3 5 -2 12 4 14 5 1 -128 3 -296 3 -168 0 -310 -3 -317 -7z"/>
<path d="M4750 9101 c0 -6 4 -13 10 -16 6 -3 7 1 4 9 -7 18 -14 21 -14 7z"/>
<path d="M5013 9104 c10 -17 -14 -32 -43 -29 -14 1 -25 3 -25 5 0 1 -12 3 -27
4 -15 2 -25 -1 -22 -6 6 -10 -10 -11 -20 -1 -10 11 -37 12 -30 2 3 -5 1 -9 -5
-9 -5 0 -12 6 -14 13 -4 10 -6 10 -6 0 -1 -7 -8 -13 -16 -13 -8 0 -15 6 -15
13 0 8 -3 8 -9 -2 -5 -8 -18 -12 -30 -8 -12 3 -21 2 -21 -1 0 -4 -16 -7 -35
-8 -19 0 -31 4 -28 9 3 5 -2 5 -12 -1 -11 -5 -30 -6 -47 -2 -17 6 -30 5 -34
-2 -5 -7 -2 -8 6 -3 9 6 10 1 5 -16 -4 -17 -4 -20 4 -10 14 21 41 23 34 3 -6
-15 -4 -15 14 1 19 17 33 14 33 -7 0 -6 -10 -17 -22 -25 -23 -14 -23 -14 -4 8
11 11 17 24 14 27 -3 3 -15 -6 -26 -20 -17 -22 -21 -23 -26 -10 -5 13 -9 14
-20 5 -10 -9 -16 -9 -21 -1 -5 8 -15 6 -33 -6 -24 -16 -26 -16 -13 -1 8 10 9
17 3 17 -6 0 -14 -5 -18 -11 -5 -8 -9 -8 -14 1 -6 9 -13 9 -29 1 -11 -7 -21
-8 -21 -4 0 4 -5 1 -10 -7 -5 -8 -10 -10 -10 -4 0 12 -29 12 -49 -1 -10 -5
-12 -4 -7 3 4 7 3 12 -3 12 -5 0 -12 -6 -14 -12 -4 -10 -6 -10 -6 0 -1 7 -6
10 -13 6 -7 -4 -8 -3 -4 4 4 7 2 12 -3 12 -6 0 -11 -4 -11 -9 0 -4 -15 -7 -32
-6 -21 1 -32 6 -30 14 1 7 -2 10 -8 6 -5 -3 -10 -2 -10 4 0 5 6 11 13 14 6 2
8 8 4 13 -11 11 -28 -17 -22 -36 4 -11 -5 -16 -34 -17 -31 -2 -40 2 -50 20
-11 21 -11 22 -8 1 4 -19 0 -22 -34 -22 -45 -1 -62 -9 -55 -27 2 -7 -1 -18 -7
-24 -8 -8 -8 -11 1 -11 9 0 10 -5 3 -18 -7 -13 -6 -23 2 -32 10 -10 9 -12 -5
-7 -18 6 -42 -15 -31 -27 11 -10 9 -86 -1 -86 -5 0 -7 -3 -3 -6 3 -3 14 -1 24
5 11 6 13 11 5 11 -17 0 -12 43 6 46 7 1 8 0 2 -3 -5 -2 -10 -12 -10 -21 0
-13 2 -14 9 -3 6 9 9 5 9 -13 0 -14 -6 -26 -12 -26 -7 0 -21 -7 -32 -16 -18
-14 -18 -15 4 -4 18 9 22 8 22 -5 0 -9 -4 -14 -8 -11 -4 2 -13 -4 -20 -14 -10
-16 -9 -21 8 -30 14 -8 20 -20 19 -43 l-2 -32 -7 35 c-8 40 -11 31 -12 -40 -1
-54 6 -77 10 -33 1 15 5 29 8 32 4 3 4 -6 2 -22 -4 -19 0 -31 11 -38 12 -8 13
-10 1 -6 -8 2 -24 1 -35 -4 -19 -7 -19 -8 3 -8 13 -1 22 -7 22 -17 0 -13 -3
-14 -14 -5 -10 9 -17 7 -27 -6 -12 -16 -12 -17 1 -7 12 9 18 9 28 -2 12 -14
12 -15 -7 -18 -20 -2 -20 -13 -1 -12 11 0 25 8 30 16 8 13 10 12 10 -2 0 -10
-4 -18 -10 -18 -12 0 -14 -26 -2 -33 4 -2 1 -2 -5 -1 -7 2 -13 -1 -13 -6 0 -5
-6 -8 -12 -6 -7 1 -9 1 -5 -2 4 -2 2 -11 -5 -20 -11 -13 -11 -14 1 -7 11 6 13
4 8 -9 -4 -11 -3 -15 4 -11 6 4 8 13 5 21 -3 7 -1 16 4 19 14 9 12 -39 -2 -53
-7 -7 -8 -12 -2 -12 5 0 14 4 20 10 6 6 10 -1 11 -23 1 -30 1 -30 -7 -7 -7 21
-8 22 -9 5 -1 -17 -3 -17 -11 -5 -8 13 -11 13 -22 1 -10 -10 -10 -12 0 -7 17
10 15 -4 -5 -28 -18 -21 -18 -21 3 -3 22 18 39 23 29 8 -3 -5 3 -11 12 -13 15
-3 14 -5 -5 -10 -12 -3 -20 -2 -16 3 9 15 -3 10 -17 -8 -10 -11 -10 -14 -1 -9
6 4 12 3 12 -3 0 -5 -6 -12 -12 -14 -8 -4 -7 -6 3 -6 9 -1 19 6 23 14 3 8 11
15 18 14 10 0 10 -2 1 -6 -7 -2 -13 -13 -13 -23 0 -10 -5 -22 -12 -26 -7 -5
-8 -3 -3 6 5 7 4 11 -1 7 -13 -7 -10 -63 5 -81 10 -12 9 -14 -7 -9 -11 2 -23
0 -26 -6 -4 -7 -1 -9 8 -5 11 4 14 -3 14 -33 0 -56 1 -65 10 -59 4 2 8 -5 9
-17 0 -12 -1 -16 -4 -9 -3 6 -12 12 -21 12 -11 0 -13 -3 -5 -8 15 -10 15 -84
0 -76 -8 4 -7 2 1 -7 15 -16 16 -75 1 -85 -8 -4 -8 -9 0 -17 15 -15 14 -67 -1
-67 -9 0 -8 -4 2 -10 14 -9 7 -14 -13 -11 -5 1 -6 -3 -2 -9 3 -6 11 -8 16 -5
5 4 9 -5 9 -19 0 -13 -6 -26 -12 -29 -9 -3 -5 -12 11 -28 13 -13 20 -17 15 -9
-12 21 -14 40 -4 40 5 0 5 14 0 30 -5 19 -5 28 1 25 5 -4 9 -15 9 -26 0 -12 4
-17 11 -13 8 4 8 1 1 -12 -5 -11 -9 -78 -8 -151 1 -72 -2 -129 -7 -126 -4 2
-4 9 -1 15 4 6 2 8 -4 4 -6 -3 -13 -2 -17 4 -3 5 -10 10 -16 10 -5 0 0 -9 11
-20 11 -11 20 -25 20 -31 0 -5 4 -8 8 -5 4 2 9 -5 9 -16 2 -20 1 -20 -13 -2
-14 17 -15 18 -10 1 4 -12 -1 -21 -17 -27 -18 -7 -19 -9 -4 -9 10 -1 16 -5 12
-10 -9 -16 13 -23 37 -11 22 11 22 10 4 -4 -15 -12 -16 -16 -5 -16 8 -1 5 -6
-9 -13 -12 -7 -19 -17 -15 -22 4 -4 3 -5 -4 -1 -6 3 -10 14 -8 24 1 9 -4 24
-13 32 -14 13 -15 12 -8 -5 5 -11 8 -27 8 -36 0 -9 11 -22 25 -28 22 -10 25
-9 19 4 -3 9 -2 14 3 10 5 -3 11 -2 14 2 2 5 2 1 -1 -7 -2 -8 -5 -20 -5 -27 0
-7 -4 -10 -9 -7 -4 3 -8 1 -8 -4 0 -5 9 -12 20 -15 14 -4 18 -10 14 -24 -10
-25 -35 -53 -48 -52 -45 5 -54 -1 -58 -41 -3 -37 -1 -42 18 -39 14 2 22 -26
12 -44 -5 -11 -6 -17 -1 -14 4 2 28 1 53 -3 37 -6 27 -8 -52 -9 -78 -1 -98 -4
-98 -15 0 -12 22 -15 110 -18 69 -2 110 1 110 7 0 7 3 7 8 0 4 -5 23 -10 42
-10 19 1 38 -4 42 -10 5 -7 8 -7 8 0 0 13 59 13 79 1 9 -6 12 -5 8 1 -3 5 0
10 8 10 8 0 17 -7 19 -14 3 -8 1 -11 -4 -8 -6 3 -13 -1 -16 -10 -6 -14 -9 -14
-28 2 -16 14 -16 12 3 -10 25 -28 32 -32 30 -19 -3 19 2 32 13 30 7 -2 13 3
14 10 1 6 2 15 3 19 0 4 6 2 13 -5 16 -16 31 -15 22 1 -6 9 -5 9 7 0 12 -10
18 -10 29 0 10 9 11 9 6 0 -4 -7 -2 -13 3 -13 6 0 11 5 11 11 0 5 5 7 11 3 8
-4 4 -11 -11 -19 -18 -10 -20 -14 -8 -26 18 -20 22 -42 6 -37 -7 3 -14 10 -14
16 -1 7 -2 18 -3 25 -1 8 -4 8 -12 -3 -9 -13 -10 -12 -5 2 3 10 0 20 -6 24 -6
4 -8 3 -5 -3 4 -6 -3 -23 -14 -38 -17 -20 -19 -29 -10 -38 9 -9 11 -8 6 4 -3
9 1 22 11 30 15 13 16 11 10 -11 -5 -16 -4 -20 2 -12 7 11 15 10 40 -6 26 -15
29 -21 19 -32 -10 -12 -9 -11 6 0 17 12 17 15 3 25 -10 8 -12 15 -5 22 7 7 6
15 -4 25 -13 13 -12 16 7 28 11 8 27 13 35 11 8 -1 10 2 5 10 -4 8 -3 10 5 5
6 -4 9 -12 6 -17 -3 -5 1 -6 9 -3 9 3 13 11 9 18 -4 6 1 5 10 -3 12 -9 17 -10
17 -2 0 7 5 9 11 5 8 -4 7 -9 -2 -15 -7 -4 -16 -6 -20 -3 -4 2 -10 -3 -13 -11
-5 -13 -10 -14 -27 -4 -13 7 -19 7 -15 1 4 -7 -2 -9 -15 -7 -17 3 -19 2 -9
-10 6 -8 19 -11 28 -9 15 5 15 4 0 -9 -10 -8 -18 -18 -18 -22 0 -5 11 2 25 15
20 19 27 21 40 10 10 -8 15 -9 15 -1 0 6 -4 11 -10 11 -5 0 -10 5 -10 11 0 5
5 7 10 4 6 -3 10 -1 10 4 0 6 5 11 11 11 6 0 8 -8 4 -19 -3 -11 -2 -22 3 -24
4 -3 8 6 9 21 1 47 2 49 31 46 38 -3 39 -3 22 -14 -10 -7 -11 -10 -2 -10 7 0
15 7 18 15 5 13 9 13 22 3 9 -7 13 -8 10 -3 -4 7 278 10 838 10 464 0 844 2
844 5 0 3 13 5 30 6 16 1 28 -2 25 -5 -2 -4 10 -7 26 -6 16 0 29 4 29 9 0 6 5
5 12 -2 15 -15 31 -16 22 0 -4 6 -3 8 3 5 6 -4 27 -9 47 -11 l36 -5 0 164 c0
140 -2 165 -15 165 -12 0 -15 -14 -16 -62 -1 -35 -1 -68 0 -73 0 -6 -8 -11
-19 -11 -16 0 -17 3 -6 16 17 20 17 87 0 87 -7 0 -11 -4 -8 -9 3 -4 0 -8 -5
-8 -6 0 -11 7 -11 15 0 8 6 15 13 15 8 0 7 4 -3 10 -8 5 -19 10 -25 10 -5 0
-4 -4 4 -9 9 -6 10 -11 2 -15 -6 -4 -8 -13 -4 -19 4 -7 -2 -5 -13 3 -29 22
-30 24 -11 17 9 -4 17 -2 17 3 0 6 -6 10 -12 10 -7 0 -5 5 5 11 10 6 25 8 33
5 10 -4 12 -2 7 7 -4 6 -8 406 -8 888 -1 814 -2 878 -18 902 -42 65 -7 62
-696 62 -360 0 -631 -3 -638 -8 -8 -6 -13 -6 -13 0 0 5 -13 9 -30 8 -35 -2
-51 -12 -18 -12 42 -1 46 -3 46 -29 0 -17 -3 -22 -9 -13 -4 7 -6 16 -4 19 2 4
-22 6 -53 6 -37 -1 -57 3 -57 11 0 6 -4 15 -9 20 -5 4 -6 3 -3 -3z m1456 -42
c11 -15 17 -39 16 -65 -1 -23 2 -47 6 -53 5 -7 3 -11 -6 -11 -10 0 -15 10 -15
29 0 17 -5 28 -14 28 -9 0 -13 10 -11 30 1 16 -1 28 -5 25 -4 -3 -6 -19 -5
-36 2 -19 -3 -33 -11 -36 -11 -4 -12 -9 -3 -19 10 -12 9 -13 -5 -8 -20 8 -21
23 -1 30 10 4 12 11 6 21 -5 9 -7 23 -6 32 1 9 0 10 -2 4 -3 -7 -9 -13 -15
-13 -6 0 -7 8 -3 18 5 15 5 15 -7 2 -7 -8 -20 -21 -28 -29 -13 -12 -13 -13 3
-8 9 4 17 2 17 -3 0 -6 -6 -10 -14 -10 -8 0 -16 -3 -19 -7 -2 -5 -2 -3 -1 4 2
7 -1 15 -6 18 -6 4 -10 1 -10 -4 0 -17 -27 -13 -34 5 -3 8 -11 12 -17 8 -8 -4
-9 -3 -5 4 4 7 2 12 -4 12 -6 0 -8 5 -5 10 3 6 1 10 -5 10 -6 0 -10 -7 -8 -16
2 -10 -3 -19 -9 -21 -7 -3 -13 0 -13 7 0 6 5 8 13 4 8 -5 8 -2 -2 9 -13 17
-26 24 -17 9 2 -4 -2 -18 -10 -32 -7 -14 -13 -20 -14 -14 0 5 -7 19 -16 30
-13 16 -15 16 -10 2 3 -10 0 -20 -6 -24 -7 -4 -8 -3 -4 4 5 8 -3 12 -23 13
-44 2 -48 3 -58 12 -4 5 1 15 11 23 11 8 15 14 9 14 -15 0 -36 -27 -29 -39 4
-5 2 -12 -4 -16 -5 -3 -11 -1 -11 4 -1 6 -2 16 -3 22 0 7 -11 16 -24 20 -15 6
-21 5 -17 -1 3 -6 12 -10 19 -10 15 0 17 -29 2 -31 -39 -5 -113 -3 -109 4 5 9
0 9 -21 1 -9 -3 -13 -10 -10 -15 3 -5 -2 -6 -10 -3 -9 3 -16 10 -16 16 0 5 4
7 9 4 5 -4 6 4 3 16 -5 19 -7 20 -10 6 -2 -10 -8 -18 -13 -18 -6 0 -8 -4 -5
-8 8 -14 -68 -8 -83 6 -7 7 -16 10 -19 7 -4 -3 -1 -10 6 -14 8 -4 -23 -8 -67
-8 -47 0 -78 4 -74 10 3 5 -5 4 -17 -3 -20 -11 -21 -10 -15 9 4 13 2 21 -5 21
-6 0 -8 -4 -5 -10 7 -11 -28 -14 -38 -4 -3 4 -2 16 4 28 9 19 9 19 -4 4 -8
-10 -17 -15 -21 -11 -11 11 -36 12 -33 1 1 -6 -4 -13 -11 -15 -8 -3 -10 2 -6
14 5 15 4 15 -5 3 -8 -11 -11 -12 -11 -2 0 9 -7 11 -21 7 -16 -5 -19 -4 -14 6
5 7 -3 4 -17 -7 -14 -10 -24 -23 -21 -28 3 -4 10 -2 15 5 7 10 8 9 4 -6 -6
-19 -5 -19 8 -2 10 14 15 15 19 5 3 -8 6 -6 6 5 1 10 6 15 11 12 6 -4 7 -11 4
-17 -5 -7 -2 -8 6 -3 8 5 11 4 7 -2 -7 -11 26 -10 53 1 11 5 16 0 17 -14 1
-11 -3 -20 -8 -20 -6 0 -8 4 -5 9 3 4 -8 8 -24 7 -17 -1 -30 -5 -30 -11 0 -5
-4 -4 -9 4 -11 17 -41 24 -41 10 0 -15 -27 -10 -34 6 -3 8 -10 15 -16 15 -6 0
-8 -4 -5 -10 3 -6 -1 -7 -10 -4 -10 4 -13 13 -10 24 3 10 0 22 -6 26 -8 5 -9
3 -4 -6 6 -10 4 -12 -11 -6 -35 14 -64 14 -64 0 0 -8 -5 -14 -11 -14 -5 0 -8
4 -4 9 3 5 1 12 -5 16 -5 3 -10 0 -10 -7 0 -8 -3 -9 -8 -3 -4 6 -17 10 -29 9
-21 -1 -29 6 -19 17 2 2 293 2 646 -1 l641 -5 18 -23z m-1584 -11 c3 -5 2 -12
-3 -15 -5 -3 -9 1 -9 9 0 17 3 19 12 6z m163 -16 c-3 -3 -9 2 -12 12 -6 14 -5
15 5 6 7 -7 10 -15 7 -18z m262 4 c0 -5 -4 -9 -10 -9 -5 0 -10 4 -10 10 0 5
-7 7 -15 4 -8 -4 -12 -11 -8 -17 4 -6 1 -7 -7 -2 -10 6 -9 11 4 21 18 13 46 9
46 -7z m200 12 c0 -5 -7 -12 -16 -15 -14 -5 -15 -4 -4 9 14 17 20 19 20 6z
m-810 -16 c0 -8 -2 -15 -4 -15 -2 0 -6 7 -10 15 -3 8 -1 15 4 15 6 0 10 -7 10
-15z m514 3 c-3 -4 -9 -8 -15 -8 -5 0 -9 4 -9 8 0 5 7 9 15 9 8 0 12 -4 9 -9z
m-129 -7 c3 -5 2 -12 -3 -15 -5 -3 -9 1 -9 9 0 17 3 19 12 6z m-355 -5 c0 -3
-4 -8 -10 -11 -5 -3 -10 -1 -10 4 0 6 5 11 10 11 6 0 10 -2 10 -4z m74 -12 c3
-8 2 -12 -4 -9 -6 3 -10 10 -10 16 0 14 7 11 14 -7z m766 -6 c0 -5 -9 -4 -20
2 -11 6 -20 12 -20 14 0 2 9 2 20 -1 11 -3 20 -9 20 -15z m-240 2 c0 -5 -2
-10 -4 -10 -3 0 -8 5 -11 10 -3 6 -1 10 4 10 6 0 11 -4 11 -10z m1080 -11 c0
-14 -17 -10 -23 5 -4 10 -1 13 9 9 7 -3 14 -9 14 -14z m-403 -14 c0 -8 -4 -12
-9 -9 -5 3 -6 10 -3 15 9 13 12 11 12 -6z m-1903 -4 c-8 -8 -44 -8 -44 1 0 4
11 7 25 6 13 -1 22 -4 19 -7z m1566 4 c0 -7 -30 -13 -34 -7 -3 4 4 9 15 9 10
1 19 0 19 -2z m100 -5 c0 -5 -2 -10 -4 -10 -3 0 -8 5 -11 10 -3 6 -1 10 4 10
6 0 11 -4 11 -10z m425 0 c3 -6 -1 -7 -9 -4 -18 7 -21 14 -7 14 6 0 13 -4 16
-10z m187 -32 c-8 -8 -9 -4 -5 13 4 13 8 18 11 10 2 -7 -1 -18 -6 -23z m75 10
c2 -17 0 -19 -7 -8 -5 8 -6 18 -4 22 8 12 10 10 11 -14z m-2287 6 c0 -8 -19
-13 -24 -6 -3 5 1 9 9 9 8 0 15 -2 15 -3z m235 -12 c-3 -3 -11 0 -18 7 -9 10
-8 11 6 5 10 -3 15 -9 12 -12z m2077 -50 c-7 -2 -9 -9 -5 -15 11 -18 12 -36 3
-42 -5 -3 -7 3 -5 15 2 11 0 22 -5 25 -5 3 -7 12 -4 20 4 8 11 12 17 8 8 -5 7
-8 -1 -11z m-2441 -37 c5 4 9 2 9 -3 0 -6 -7 -13 -16 -16 -8 -3 -12 -2 -9 3 3
5 1 12 -5 16 -6 4 -7 12 -3 18 5 8 9 6 11 -6 2 -9 8 -15 13 -12z m2444 -65 c1
-11 -2 -20 -7 -20 -4 0 -7 11 -6 25 3 28 11 24 13 -5z m-2 -45 c4 -8 3 -16 -1
-19 -4 -3 -9 4 -9 15 -2 23 3 25 10 4z m-2431 -30 c-6 -34 -13 -32 -10 4 1 16
5 28 9 26 3 -3 4 -16 1 -30z m-22 -20 c0 -9 -6 -12 -16 -8 -13 5 -13 7 -2 14
17 11 18 11 18 -6z m2460 1 c0 -3 -4 -8 -10 -11 -5 -3 -10 -1 -10 4 0 6 5 11
10 11 6 0 10 -2 10 -4z m-2443 -38 c-3 -8 -6 -5 -6 6 -1 11 2 17 5 13 3 -3 4
-12 1 -19z m2439 -113 c-1 -8 -5 -17 -8 -21 -5 -4 -4 16 1 34 3 9 9 -1 7 -13z
m1 -90 c0 -8 -4 -15 -9 -15 -10 0 -11 14 -1 23 9 10 10 9 10 -8z m-3 -139 c2
-15 0 -28 -3 -31 -4 -2 -7 12 -8 31 -1 40 7 39 11 0z m1 -64 c-3 -3 -11 0 -18
7 -9 10 -8 11 6 5 10 -3 15 -9 12 -12z m-3 -89 c-6 -2 -9 -10 -6 -15 4 -7 2
-8 -5 -4 -13 9 -5 26 12 25 9 0 8 -2 -1 -6z m5 -78 c0 -8 -4 -12 -9 -9 -4 3
-8 9 -8 15 0 5 4 9 8 9 5 0 9 -7 9 -15z m-2440 -17 c-3 -8 -6 -5 -6 6 -1 11 2
17 5 13 3 -3 4 -12 1 -19z m0 -50 c-3 -7 -5 -2 -5 12 0 14 2 19 5 13 2 -7 2
-19 0 -25z m2437 6 c3 -8 2 -12 -4 -9 -6 3 -10 10 -10 16 0 14 7 11 14 -7z
m-2437 -46 c-3 -8 -6 -5 -6 6 -1 11 2 17 5 13 3 -3 4 -12 1 -19z m2447 -6 c3
-5 -1 -9 -9 -9 -8 0 -15 4 -15 9 0 4 4 8 9 8 6 0 12 -4 15 -8z m-2454 -87 c5
14 7 5 7 -28 0 -28 -4 -42 -9 -35 -5 9 -8 5 -8 -10 0 -13 4 -20 10 -17 6 3 10
-1 10 -9 0 -20 -22 -11 -38 15 -8 12 -9 18 -3 14 6 -3 11 0 11 9 0 8 6 17 13
20 10 5 10 7 0 12 -9 4 -12 25 -11 62 l2 57 4 -55 c3 -40 6 -49 12 -35z m7 53
c-3 -8 -6 -5 -6 6 -1 11 2 17 5 13 3 -3 4 -12 1 -19z m2438 3 c3 -5 2 -12 -3
-15 -5 -3 -9 1 -9 9 0 17 3 19 12 6z m1 -77 c1 -9 0 -13 -4 -10 -3 4 -7 14 -8
22 -1 9 0 13 4 10 3 -4 7 -14 8 -22z m-2442 -136 c7 -5 6 -8 -5 -8 -22 0 -28
8 -21 33 6 21 6 21 10 2 2 -11 9 -23 16 -27z m21 -118 c3 -5 1 -10 -4 -10 -6
0 -11 5 -11 10 0 6 2 10 4 10 3 0 8 -4 11 -10z m3 -145 c-3 -3 -9 2 -12 12 -6
14 -5 15 5 6 7 -7 10 -15 7 -18z m16 -41 c3 -8 2 -12 -4 -9 -6 3 -10 10 -10
16 0 14 7 11 14 -7z m2401 -54 c3 -5 1 -10 -4 -10 -6 0 -11 5 -11 10 0 6 2 10
4 10 3 0 8 -4 11 -10z m-2390 -20 c-3 -5 -12 -10 -18 -10 -7 0 -6 4 3 10 19
12 23 12 15 0z m2390 -9 c3 -5 2 -12 -3 -15 -5 -3 -9 1 -9 9 0 17 3 19 12 6z
m-2455 -30 c0 -6 -4 -12 -8 -15 -5 -3 -9 1 -9 9 0 8 4 15 9 15 4 0 8 -4 8 -9z
m2451 -44 c-6 -8 -9 -16 -6 -19 3 -2 -1 -5 -9 -5 -11 0 -12 4 -3 19 7 10 16
18 21 18 4 0 3 -6 -3 -13z m-2391 -73 c0 -8 -19 -13 -24 -6 -3 5 1 9 9 9 8 0
15 -2 15 -3z m2400 -35 c0 -5 11 -3 23 6 23 15 24 14 22 -12 0 -15 -6 -28 -13
-31 -15 -5 -15 11 0 26 7 7 8 12 2 12 -6 0 -14 -3 -18 -7 -3 -4 -14 -8 -22 -9
-9 -1 -13 0 -10 3 3 4 1 12 -6 20 -8 11 -7 12 6 7 9 -3 16 -10 16 -15z m-2400
-45 c0 -8 -19 -13 -24 -6 -3 5 1 9 9 9 8 0 15 -2 15 -3z m2466 -98 c-1 -35 -4
-68 -8 -72 -4 -3 -6 21 -4 55 3 33 0 61 -5 61 -5 0 -9 5 -9 10 0 6 6 10 14 10
10 0 13 -16 12 -64z m-2496 10 c0 -2 -7 -7 -16 -10 -8 -3 -12 -2 -9 4 6 10 25
14 25 6z m-45 -16 c-3 -5 -1 -10 5 -10 6 0 8 -4 5 -10 -3 -5 -1 -10 6 -10 7 0
10 -2 7 -5 -11 -11 -36 7 -33 23 5 23 4 22 11 22 3 0 2 -4 -1 -10z m50 -10
c-3 -5 -12 -10 -18 -10 -7 0 -6 4 3 10 19 12 23 12 15 0z m2463 -37 c-3 -17
-38 -28 -38 -11 0 6 7 8 15 4 9 -3 15 0 15 9 0 8 3 15 6 15 3 0 4 -7 2 -17z
m-2423 -2 c3 -5 1 -12 -5 -16 -5 -3 -10 1 -10 9 0 18 6 21 15 7z m32 -6 c0 -8
-4 -12 -9 -9 -5 3 -6 10 -3 15 9 13 12 11 12 -6z m713 -6 c0 -6 -4 -7 -10 -4
-5 3 -10 11 -10 16 0 6 5 7 10 4 6 -3 10 -11 10 -16z m426 12 c-3 -4 26 -7 64
-6 39 2 70 0 70 -4 0 -3 -47 -6 -104 -6 -57 0 -102 3 -99 8 2 4 15 5 28 3 14
-3 27 0 30 5 4 5 8 9 11 9 3 0 3 -4 0 -9z m720 -3 c4 -7 3 -8 -4 -4 -7 4 -12
4 -12 -1 0 -10 -87 -9 -97 1 -4 3 14 6 40 5 26 -1 50 1 54 4 9 9 11 9 19 -5z
m270 -7 c-3 -4 -20 -6 -38 -5 -44 2 -47 4 -24 13 22 8 68 2 62 -8z m-1499 3
c-3 -3 -12 -4 -19 -1 -8 3 -5 6 6 6 11 1 17 -2 13 -5z m113 2 c0 -3 -4 -8 -10
-11 -5 -3 -10 -1 -10 4 0 6 5 11 10 11 6 0 10 -2 10 -4z m50 -4 c0 -4 -9 -8
-20 -8 -11 0 -20 4 -20 8 0 4 9 8 20 8 11 0 20 -4 20 -8z m70 -1 c0 -4 -13 -7
-30 -6 -16 0 -30 3 -30 7 0 4 14 6 30 6 17 -1 30 -4 30 -7z m50 -3 c0 -3 -9
-6 -20 -5 -11 1 -20 5 -20 9 0 3 9 6 20 5 11 -1 20 -5 20 -9z m120 3 c0 -4
-25 -6 -55 -6 -30 0 -55 2 -55 5 0 4 25 6 55 7 30 0 55 -3 55 -6z m300 1 c0
-5 -7 -9 -15 -9 -8 0 -12 4 -9 9 3 4 9 8 15 8 5 0 9 -4 9 -8z m84 -2 c-8 -7
-54 -7 -54 0 0 4 13 7 29 6 16 0 27 -3 25 -6z m96 1 c0 -4 -18 -7 -40 -7 -22
0 -40 3 -40 6 0 4 18 7 40 7 22 0 40 -3 40 -6z m50 1 c0 -4 -9 -8 -20 -8 -11
0 -20 4 -20 8 0 4 9 8 20 8 11 0 20 -4 20 -8z m30 -2 c0 -5 -2 -10 -4 -10 -3
0 -8 5 -11 10 -3 6 -1 10 4 10 6 0 11 -4 11 -10z m30 6 c0 -3 -4 -8 -10 -11
-5 -3 -10 -1 -10 4 0 6 5 11 10 11 6 0 10 -2 10 -4z m30 0 c0 -3 -4 -8 -10
-11 -5 -3 -10 -1 -10 4 0 6 5 11 10 11 6 0 10 -2 10 -4z m77 -3 c-10 -9 -58
-10 -63 -1 -3 4 12 8 32 8 21 0 34 -3 31 -7z m173 3 c0 -11 -19 -15 -25 -6 -3
5 1 10 9 10 9 0 16 -2 16 -4z m108 -2 c-10 -9 -78 -12 -78 -3 0 5 19 9 42 9
23 0 39 -3 36 -6z m32 -4 c0 -5 -2 -10 -4 -10 -3 0 -8 5 -11 10 -3 6 -1 10 4
10 6 0 11 -4 11 -10z m290 0 c0 -3 -9 -11 -19 -17 -15 -9 -22 -9 -29 0 -6 7
-36 12 -76 12 -36 -1 -66 3 -66 7 0 4 43 6 95 5 52 -1 95 -4 95 -7z"/>
<path d="M5347 9058 c-4 -14 -2 -16 13 -8 27 15 31 26 10 26 -10 0 -21 -8 -23
-18z"/>
<path d="M5620 9052 c9 -19 30 -23 30 -5 0 4 -3 3 -7 0 -3 -4 -12 1 -20 11
-13 15 -13 15 -3 -6z"/>
<path d="M5664 9058 c-3 -4 5 -5 17 -3 30 6 36 14 9 12 -12 -1 -24 -5 -26 -9z"/>
<path d="M5719 9063 c0 -5 -2 -16 -4 -25 -2 -10 0 -18 5 -18 4 0 8 11 8 25 0
22 -7 36 -9 18z"/>
<path d="M5840 9055 c-7 -9 -10 -18 -7 -21 3 -3 10 4 17 15 13 25 8 27 -10 6z"/>
<path d="M5935 9060 c-4 -6 -16 -8 -28 -5 -12 2 -16 2 -9 -1 6 -3 10 -9 8 -13
-3 -4 4 -7 14 -7 10 0 17 3 14 7 -2 4 2 9 8 12 7 2 10 7 7 11 -4 4 -10 2 -14
-4z"/>
<path d="M5963 9053 c-3 -10 -7 -21 -9 -24 -5 -9 64 -4 73 5 4 5 3 6 -4 2 -8
-4 -13 -2 -13 6 0 9 -3 9 -10 -2 -9 -13 -10 -13 -10 0 0 13 -1 13 -11 0 -9
-12 -10 -11 -6 8 6 26 -1 30 -10 5z"/>
<path d="M6133 9053 c-3 -7 -10 -10 -16 -6 -6 3 -7 1 -3 -5 10 -17 26 -15 26
4 0 8 4 12 10 9 5 -3 18 -2 27 4 14 7 12 9 -11 8 -16 -1 -31 -8 -33 -14z"/>
<path d="M6297 9059 c7 -7 15 -10 18 -7 3 3 -2 9 -12 12 -14 6 -15 5 -6 -5z"/>
<path d="M5797 9053 c-11 -11 -8 -21 9 -27 14 -5 15 -4 5 8 -9 11 -9 15 1 19
7 3 8 6 2 6 -6 1 -14 -2 -17 -6z"/>
<path d="M6197 9030 c3 -11 7 -20 9 -20 2 0 4 9 4 20 0 11 -4 20 -9 20 -5 0
-7 -9 -4 -20z"/>
<path d="M6294 9028 c11 -16 23 -25 30 -21 6 4 17 8 24 9 20 3 22 8 12 24 -8
12 -10 12 -10 -4 0 -14 -3 -16 -13 -7 -8 6 -17 8 -20 4 -4 -3 -14 0 -24 8 -15
13 -15 11 1 -13z"/>
<path d="M5660 9030 c-9 -6 -10 -10 -3 -10 6 0 15 5 18 10 8 12 4 12 -15 0z"/>
<path d="M6426 6948 c3 -5 10 -6 15 -3 13 9 11 12 -6 12 -8 0 -12 -4 -9 -9z"/>
<path d="M4151 9049 c13 -24 24 -30 44 -23 13 5 14 8 3 15 -10 7 -10 9 0 9 6
0 12 4 12 8 0 5 -7 9 -15 9 -8 0 -12 -4 -10 -8 3 -4 -2 -10 -11 -13 -11 -4
-15 -2 -11 7 3 8 -1 14 -8 14 -10 0 -11 -5 -4 -18z"/>
<path d="M4263 9047 c-9 -20 -8 -23 11 -25 16 -1 17 1 6 8 -8 5 -11 12 -7 16
3 4 13 2 20 -4 8 -7 17 -9 20 -6 3 3 12 2 19 -2 20 -12 121 -13 108 0 -6 6 -6
14 1 23 7 7 8 13 4 13 -4 0 -15 -10 -25 -22 -15 -19 -20 -20 -34 -9 -9 7 -14
17 -11 20 2 4 -2 8 -10 8 -11 0 -12 -4 -4 -13 8 -10 6 -12 -10 -11 -12 1 -21
4 -21 8 0 4 -7 9 -14 12 -11 4 -13 1 -9 -11 6 -16 5 -16 -14 1 -19 16 -20 16
-30 -6z"/>
<path d="M4390 9060 c0 -5 5 -10 10 -10 6 0 10 5 10 10 0 6 -4 10 -10 10 -5 0
-10 -4 -10 -10z"/>
<path d="M4466 9058 c3 -4 0 -8 -6 -8 -6 0 -8 -5 -4 -11 4 -8 9 -7 15 2 8 12
10 12 18 0 6 -9 11 -10 15 -2 4 6 2 11 -4 11 -6 0 -9 4 -6 8 2 4 -4 8 -14 8
-10 0 -16 -4 -14 -8z"/>
<path d="M4529 9049 c-10 -6 -10 -9 -1 -9 22 0 27 -2 40 -12 9 -8 11 -7 6 5
-7 20 -27 27 -45 16z"/>
<path d="M4600 9041 c0 -6 4 -13 10 -16 6 -3 7 1 4 9 -7 18 -14 21 -14 7z"/>
<path d="M7195 9020 c-29 -11 -48 -37 -39 -51 4 -7 3 -9 -4 -5 -16 10 -17 -55
-17 -926 0 -702 -2 -798 -15 -799 -8 -1 -30 0 -47 1 -18 1 -33 -2 -34 -7 0 -4
-2 -73 -5 -153 l-4 -145 953 3 c1415 4 1637 3 1648 -3 6 -4 9 46 8 139 -1 100
-5 146 -13 146 -6 0 -4 5 4 10 11 8 -5 9 -53 7 -37 -2 -70 0 -74 5 -3 5 -5 58
-6 116 0 62 -5 113 -11 121 -8 11 -8 13 1 8 14 -9 13 89 -1 112 -6 10 -5 12 2
7 16 -10 15 16 0 33 -10 11 -10 13 -1 7 17 -10 17 192 0 213 -9 11 -9 13 0 8
17 -11 11 76 -7 99 -14 17 -14 18 1 6 15 -11 17 -4 16 80 0 53 -5 99 -11 107
-8 11 -8 13 2 7 19 -12 14 21 -5 34 -15 10 -16 11 -1 6 13 -4 16 2 14 27 -1
18 -5 38 -10 46 -6 10 -5 12 3 7 9 -6 11 5 9 45 -2 30 -8 60 -12 68 -6 10 -5
12 2 7 8 -5 12 4 12 28 0 20 -4 36 -10 36 -5 0 -10 5 -10 11 0 5 5 7 10 4 14
-9 10 55 -4 74 -8 11 -8 13 2 7 16 -9 14 52 -2 73 -8 11 -8 13 2 7 19 -12 14
21 -5 34 -13 8 -13 10 -3 7 13 -4 16 15 18 138 2 109 -1 147 -11 157 -7 7 -15
18 -18 23 -2 6 -7 9 -11 7 -5 -1 -8 2 -8 8 0 12 -2225 13 -2255 0z m92 -1255
c0 -8 -4 -12 -9 -9 -5 3 -6 10 -3 15 9 13 12 11 12 -6z m2334 -618 c-10 -9
-11 -8 -5 6 3 10 9 15 12 12 3 -3 0 -11 -7 -18z m-486 -107 c-3 -5 -12 -10
-18 -10 -7 0 -6 4 3 10 19 12 23 12 15 0z"/>
<path d="M4010 8940 c0 -5 5 -10 11 -10 5 0 7 5 4 10 -3 6 -8 10 -11 10 -2 0
-4 -4 -4 -10z"/>
<path d="M3996 8442 c-3 -5 1 -9 9 -9 8 0 15 4 15 9 0 4 -4 8 -9 8 -6 0 -12
-4 -15 -8z"/>
<path d="M3995 7610 c-4 -7 2 -21 14 -33 l21 -21 -5 24 c-6 31 -21 45 -30 30z
m19 -16 c3 -8 2 -12 -4 -9 -6 3 -10 10 -10 16 0 14 7 11 14 -7z"/>
<path d="M3989 7544 c-7 -8 -8 -14 -3 -13 20 3 35 -2 29 -10 -3 -5 -2 -12 3
-15 4 -2 8 6 8 19 0 29 -20 39 -37 19z"/>
<path d="M3992 7493 c-10 -4 -8 -9 5 -19 14 -11 15 -15 5 -22 -11 -7 -10 -11
4 -16 9 -3 19 -4 22 -1 3 3 1 5 -5 5 -12 0 -12 32 0 41 11 8 -14 17 -31 12z"/>
<path d="M3993 7383 c4 -6 0 -18 -8 -27 -14 -13 -13 -15 3 -13 19 1 23 30 7
44 -4 5 -5 3 -2 -4z"/>
<path d="M3993 7207 c-3 -6 -1 -7 5 -3 19 11 14 -5 -5 -20 -17 -12 -17 -12 1
-11 10 1 21 -4 23 -11 3 -7 -1 -10 -11 -6 -9 3 -16 1 -16 -6 0 -6 4 -9 9 -6 5
3 12 -1 15 -10 5 -13 9 -14 20 -5 24 20 26 49 4 55 -13 3 -18 10 -15 19 6 16
-20 19 -30 4z m38 -59 c-11 -11 -13 -10 -7 0 4 7 2 21 -5 30 -12 15 -11 15 6
0 16 -15 17 -20 6 -30z"/>
<path d="M3940 7005 c0 -2 6 -8 13 -14 10 -8 14 -7 14 2 0 8 -6 14 -14 14 -7
0 -13 -1 -13 -2z"/>
<path d="M4345 6898 c3 -30 -5 -44 -16 -27 -6 10 -9 10 -9 2 0 -22 17 -23 35
-2 17 18 17 21 3 35 -13 13 -15 13 -13 -8z"/>
<path d="M4595 6909 c-4 -6 -5 -12 -2 -15 2 -3 7 2 10 11 7 17 1 20 -8 4z"/>
<path d="M930 6890 c-6 -11 -8 -20 -6 -20 3 0 10 9 16 20 6 11 8 20 6 20 -3 0
-10 -9 -16 -20z"/>
<path d="M907 6847 c-7 -18 38 -17 55 2 11 11 10 12 -2 5 -20 -11 -34 -12 -41
-1 -3 5 -9 2 -12 -6z"/>
<path d="M4499 6833 c-13 -16 -12 -17 3 -5 9 8 23 10 29 6 8 -4 9 -3 5 4 -10
17 -21 15 -37 -5z"/>
<path d="M966 6818 c3 -5 10 -6 15 -3 13 9 11 12 -6 12 -8 0 -12 -4 -9 -9z"/>
<path d="M4570 6820 c0 -5 5 -10 11 -10 5 0 7 5 4 10 -3 6 -8 10 -11 10 -2 0
-4 -4 -4 -10z"/>
<path d="M4375 6810 c-4 -6 -16 -8 -28 -5 -20 5 -20 5 -3 -6 14 -9 21 -8 34 5
9 9 13 16 10 16 -4 0 -10 -5 -13 -10z"/>
<path d="M890 6799 c0 -5 5 -7 10 -4 6 3 10 8 10 11 0 2 -4 4 -10 4 -5 0 -10
-5 -10 -11z"/>
<path d="M4433 6765 c0 -8 4 -12 9 -9 5 3 6 10 3 15 -9 13 -12 11 -12 -6z"/>
<path d="M890 6726 c0 -2 7 -7 16 -10 8 -3 12 -2 9 4 -6 10 -25 14 -25 6z"/>
<path d="M843 6259 c-66 -19 -62 39 -62 -982 0 -727 2 -926 12 -920 18 11 37
12 37 2 0 -11 22 -7 33 6 5 6 7 4 4 -5 -2 -8 3 -21 12 -27 13 -11 14 -14 2
-22 -8 -5 -10 -14 -6 -21 5 -8 4 -11 -3 -6 -6 3 -13 2 -17 -4 -3 -5 -1 -11 4
-11 6 -1 15 -2 20 -3 5 0 13 -5 18 -10 4 -5 3 -6 -4 -2 -6 3 -17 -2 -23 -11
-11 -17 -11 -17 -6 0 4 12 2 17 -6 14 -7 -2 -12 -14 -11 -26 3 -22 -17 -25
-46 -7 -10 6 -12 5 -7 -2 4 -7 1 -12 -8 -12 -12 0 -16 -10 -16 -40 0 -39 8
-47 43 -41 12 2 8 -17 -5 -22 -10 -4 -10 -6 -1 -6 7 -1 10 -8 6 -18 -5 -14 -3
-13 13 3 11 10 16 21 12 22 -4 2 -8 9 -8 15 0 8 4 7 12 -1 17 -17 33 -15 18 3
-7 9 -8 15 -2 15 11 0 25 -26 27 -51 2 -17 -18 -20 -32 -5 -4 4 -2 6 6 4 7 -2
16 3 18 10 4 11 1 12 -15 3 -12 -6 -24 -16 -28 -23 -4 -7 -3 -8 4 -4 7 4 12 3
12 -2 0 -5 19 -9 43 -9 23 0 52 -3 65 -6 13 -3 20 -2 17 4 -8 12 2 12 25 -1
13 -7 21 -7 25 0 5 8 12 7 23 -2 12 -10 14 -10 8 0 -5 8 0 12 13 12 12 0 21 4
21 9 0 10 -19 9 -37 -2 -8 -5 -13 -4 -13 2 0 6 5 12 10 12 38 5 45 2 43 -17
-1 -12 4 -21 11 -21 8 0 12 7 9 16 -4 14 -3 14 9 1 15 -17 43 -26 33 -10 -3 5
-1 10 6 10 10 0 10 3 1 12 -7 7 -12 17 -12 22 0 6 5 3 11 -7 7 -13 15 -15 28
-8 13 7 18 6 18 -4 0 -8 -7 -17 -14 -19 -9 -4 -11 -1 -7 6 4 7 3 8 -4 4 -22
-13 -12 -23 22 -22 19 0 32 4 29 9 -2 4 1 7 6 7 6 0 10 5 9 11 -2 6 4 14 12
16 12 4 12 3 1 -5 -8 -6 -9 -12 -3 -16 6 -3 13 -2 17 4 9 14 22 13 28 -3 3 -8
-1 -14 -9 -14 -7 0 -10 5 -7 10 3 6 1 7 -5 3 -21 -13 -13 -25 16 -23 27 2 55
34 45 50 -3 5 4 4 15 -2 11 -6 23 -19 26 -29 8 -24 102 -26 111 -3 3 9 3 12
-1 8 -4 -4 -13 -2 -21 4 -7 6 -13 7 -13 2 0 -5 -9 -9 -20 -9 -25 0 -27 16 -2
17 9 0 25 2 34 4 18 3 37 -13 35 -30 -1 -5 10 -10 24 -10 28 -1 34 19 15 45
-10 13 -9 13 7 1 9 -7 17 -21 17 -30 0 -13 10 -17 45 -17 24 -1 42 2 40 7 -3
4 -13 6 -23 4 -10 -1 -26 3 -37 11 -10 8 -14 14 -9 14 6 0 14 -3 18 -7 12 -12
30 -10 44 4 17 17 34 6 27 -16 -3 -11 0 -18 9 -18 9 0 13 9 11 26 -4 25 -4 25
9 -3 9 -20 15 -25 19 -15 4 9 6 10 6 2 1 -7 10 -13 22 -13 l21 0 -21 18 c-16
13 -18 21 -11 32 9 12 10 12 8 -5 -2 -12 4 -21 16 -23 13 -3 16 0 11 10 -5 7
-5 10 0 6 4 -4 15 -2 24 4 12 10 12 8 -1 -8 -24 -28 -23 -29 21 -29 22 0 37 3
35 7 -3 5 0 8 5 8 6 0 11 -6 11 -12 0 -9 4 -8 10 2 6 10 10 11 10 3 0 -7 5
-13 11 -13 6 0 8 10 5 23 -6 22 -6 22 5 1 8 -15 20 -21 39 -20 16 0 26 4 24 8
-3 5 0 8 5 8 6 0 11 -4 11 -10 0 -5 5 -10 11 -10 5 0 8 3 6 8 -3 4 2 13 10 21
13 12 14 11 9 -5 -5 -16 0 -19 27 -21 24 -2 28 0 17 7 -13 8 -12 10 3 10 9 0
17 -4 17 -10 0 -5 5 -10 11 -10 5 0 8 4 5 8 -2 4 0 14 5 22 8 12 9 11 7 -5 -2
-14 3 -20 19 -21 12 -1 20 3 17 8 -3 4 -9 6 -14 3 -11 -7 -7 22 5 32 4 4 5 3
2 -3 -3 -6 2 -17 11 -25 21 -17 85 -22 75 -5 -4 6 2 4 12 -4 17 -14 18 -13 12
5 -7 19 -6 19 7 3 7 -10 20 -18 29 -18 11 0 15 6 11 18 -5 16 -5 16 6 0 13
-21 32 -24 24 -4 -3 8 0 17 7 22 8 4 10 3 5 -4 -12 -20 4 -35 22 -20 12 10 14
10 8 1 -4 -8 -1 -13 9 -13 10 0 13 5 9 13 -5 8 -2 7 9 -2 10 -8 20 -11 24 -8
3 4 12 2 20 -5 11 -9 12 -7 7 7 -6 14 -4 16 7 9 17 -11 119 -14 119 -3 0 14
-18 20 -22 7 -3 -8 -6 -6 -10 4 -5 11 -2 15 10 13 9 -1 21 3 25 9 5 7 7 6 6
-4 -3 -32 3 -36 55 -36 30 0 52 4 50 8 -3 4 0 8 5 8 6 0 11 -4 11 -10 0 -5 4
-10 10 -10 5 0 7 8 4 18 -5 15 -4 15 6 -1 13 -20 64 -21 88 -3 7 5 12 5 10 0
-3 -8 4 -14 17 -14 3 0 1 8 -4 18 -7 14 -6 19 3 19 7 0 13 -7 12 -15 0 -8 5
-17 12 -19 8 -3 10 2 6 14 -5 17 -5 17 9 1 20 -25 30 -22 17 5 -11 21 -11 22
5 2 14 -17 61 -32 51 -16 -2 3 3 12 11 20 13 12 14 11 8 -10 -7 -22 -7 -23 10
-9 11 8 16 10 12 3 -5 -8 2 -11 23 -11 21 1 27 4 18 9 -10 7 -8 9 5 9 12 0 16
4 11 13 -4 6 -4 9 1 5 4 -4 13 -3 20 2 8 7 12 5 12 -5 0 -7 -5 -13 -10 -12 -5
1 -11 -3 -13 -8 -3 -6 13 -11 36 -11 21 -1 37 3 34 8 -3 4 0 8 5 8 6 0 11 -4
11 -8 0 -10 55 -10 65 0 4 4 14 4 23 1 10 -4 13 -2 8 5 -3 6 -1 14 5 18 8 4 9
3 5 -4 -4 -7 -2 -12 4 -12 6 0 8 -5 4 -12 -5 -8 -2 -9 10 -5 10 4 20 7 22 7 3
0 3 4 0 9 -3 4 6 6 19 3 15 -2 22 -9 18 -16 -4 -6 0 -5 9 2 10 8 19 9 22 3 9
-14 -4 -19 -40 -15 -41 3 -64 -10 -46 -28 9 -9 12 -9 12 1 0 9 4 10 13 4 6 -5
31 -11 54 -12 l43 -2 -2 181 c-1 158 -4 180 -17 178 -12 -3 -16 -18 -17 -66
-1 -34 -4 -62 -8 -62 -30 0 -31 0 -19 8 13 8 13 102 0 102 -5 0 -5 -5 -1 -11
4 -7 2 -10 -5 -8 -9 3 -11 231 -11 909 0 874 -3 968 -30 985 -5 3 -5 -7 0 -25
5 -16 5 -30 2 -30 -4 0 -7 -32 -6 -71 2 -58 -1 -74 -17 -90 -10 -10 -19 -15
-19 -10 0 5 7 16 15 25 16 16 21 31 7 22 -5 -3 -6 9 -4 26 4 24 2 29 -9 24
-10 -5 -9 -3 1 6 16 14 15 68 -1 68 -6 0 -8 -8 -5 -17 3 -10 -2 -29 -10 -43
-10 -16 -13 -18 -8 -5 3 11 7 33 9 48 1 16 7 32 14 37 10 5 9 9 -4 13 -9 4
-13 3 -10 -3 3 -6 2 -10 -4 -10 -5 0 -12 6 -15 13 -3 6 -4 3 -1 -9 4 -13 -1
-26 -12 -35 -13 -9 -15 -9 -7 0 13 14 7 51 -8 51 -5 0 -6 -6 -2 -12 6 -10 5
-10 -7 -1 -17 13 -91 15 -83 2 2 -4 0 -10 -5 -14 -6 -3 -8 3 -6 13 4 21 -20
56 -32 49 -5 -3 -15 -2 -23 3 -10 6 1 9 33 8 26 0 51 2 54 6 4 3 -49 6 -117 6
-104 0 -121 -2 -111 -14 10 -11 7 -14 -14 -12 -27 1 -33 11 -12 19 7 3 5 6 -5
6 -11 1 -18 -6 -18 -18 0 -15 7 -18 33 -17 17 2 31 7 30 13 -2 7 19 10 55 9
46 -1 57 -4 57 -18 0 -9 4 -20 9 -25 5 -5 6 -2 1 6 -6 10 -4 12 5 6 8 -5 11
-4 6 3 -9 14 21 9 37 -7 10 -11 8 -12 -12 -6 -18 6 -22 4 -16 -6 5 -8 4 -11 0
-6 -5 4 -18 -1 -29 -10 -17 -15 -18 -15 -8 -2 10 14 10 18 -3 23 -9 3 -13 2
-10 -3 3 -5 1 -12 -4 -15 -5 -4 -12 -2 -16 4 -4 7 -13 7 -28 -1 -22 -10 -22
-10 -2 6 19 16 19 16 -10 9 -23 -5 -27 -4 -19 5 6 6 23 14 37 17 22 3 25 1 20
-13 -6 -17 -6 -17 10 -1 24 23 22 26 -18 23 -41 -2 -68 -22 -60 -44 5 -13 3
-12 -12 1 -14 13 -23 14 -37 6 -12 -7 -17 -7 -12 0 3 5 -1 13 -10 16 -8 3 -12
2 -9 -4 3 -6 -4 -10 -16 -10 -22 0 -22 0 -3 23 10 12 12 16 4 10 -18 -17 -38
-17 -22 -1 16 16 15 28 -3 28 -8 0 -12 -6 -9 -13 3 -9 -2 -13 -18 -11 -34 4
-35 5 -13 14 28 12 -1871 11 -1912 -1z m1740 -6 c-7 -2 -19 -2 -25 0 -7 3 -2
5 12 5 14 0 19 -2 13 -5z m87 -6 c0 -8 7 -14 15 -14 18 0 20 13 3 20 -7 3 -2
6 11 6 13 1 32 -9 42 -21 23 -26 23 -28 3 -28 -9 0 -12 5 -8 13 5 7 0 6 -11
-3 -17 -14 -17 -13 -11 10 6 23 6 23 -5 5 -17 -28 -31 -36 -45 -25 -6 6 -15 6
-19 2 -5 -4 -5 -2 -2 5 4 6 4 13 0 16 -5 2 -2 2 5 1 6 -2 12 1 12 6 0 5 -15
11 -32 13 -32 4 -32 4 5 5 25 1 37 -2 37 -11z m-1805 -7 c3 -5 1 -10 -4 -10
-6 0 -11 5 -11 10 0 6 2 10 4 10 3 0 8 -4 11 -10z m1698 -13 c3 -8 -1 -14 -8
-14 -7 0 -11 6 -8 14 3 7 6 13 8 13 2 0 5 -6 8 -13z m49 -6 c-4 -10 -1 -12 8
-6 9 5 11 4 6 -4 -6 -8 -12 -9 -20 -2 -7 6 -17 7 -21 3 -5 -4 -5 -2 -2 5 4 6
1 13 -5 16 -7 2 -1 4 13 3 18 -1 25 -5 21 -15z m174 8 c3 -6 2 -15 -4 -21 -6
-6 -11 -2 -15 11 -5 22 7 29 19 10z m-1923 -24 c-3 -9 -8 -14 -10 -11 -3 3 -2
9 2 15 9 16 15 13 8 -4z m2347 -109 c0 -2 -8 -10 -17 -17 -16 -13 -17 -12 -4
4 13 16 21 21 21 13z m97 -18 c-3 -8 -6 -5 -6 6 -1 11 2 17 5 13 3 -3 4 -12 1
-19z m-60 -45 c0 -9 -4 -10 -14 -2 -7 6 -13 12 -13 14 0 1 6 2 13 2 8 0 14 -6
14 -14z m40 -88 c0 -43 -4 -64 -11 -62 -12 5 -12 11 0 41 5 14 4 17 -4 12 -7
-4 -12 -2 -12 3 0 6 5 11 10 11 6 0 10 5 10 11 0 5 -5 7 -12 3 -6 -4 -9 -3 -6
2 3 5 8 17 11 27 11 30 14 19 14 -48z m-46 28 c12 -16 12 -17 -2 -6 -9 7 -20
9 -24 5 -5 -4 -5 -1 -1 6 9 16 11 15 27 -5z m-71 -7 c0 -3 -4 -8 -10 -11 -5
-3 -10 -1 -10 4 0 6 5 11 10 11 6 0 10 -2 10 -4z m117 -236 c0 -127 -5 -158
-22 -131 -3 5 -1 12 5 16 5 3 10 11 10 16 0 6 -4 8 -9 5 -5 -3 -11 1 -14 9 -4
10 -1 12 11 8 15 -6 16 -5 2 12 -8 10 -10 16 -5 13 6 -4 10 19 10 62 0 42 -4
66 -10 63 -5 -3 -4 0 3 8 6 7 12 16 12 21 0 4 -6 6 -12 4 -7 -1 -10 -1 -5 1 4
3 7 11 7 19 0 8 4 14 8 14 5 0 9 -63 9 -140z m-702 61 c3 -5 0 -13 -6 -17 -7
-4 -9 -3 -5 4 3 5 0 13 -6 15 -9 4 -10 6 -1 6 6 1 14 -3 18 -8z m-448 -26 c15
0 27 -5 26 -11 -2 -12 26 -12 46 1 9 5 12 4 7 -3 -4 -8 3 -10 24 -7 16 2 30
-1 30 -6 0 -5 5 -9 11 -9 5 0 7 5 4 10 -3 6 1 10 10 10 9 0 14 -4 11 -9 -7
-10 20 -9 30 2 4 4 20 7 35 7 15 0 31 5 34 10 5 8 11 7 21 -1 11 -9 14 -8 14
2 0 11 2 11 10 -1 5 -8 10 -11 10 -6 0 5 7 3 15 -4 9 -7 13 -20 10 -29 -5 -13
-3 -13 12 1 14 15 15 20 4 30 -11 10 -12 10 -7 1 4 -7 5 -13 2 -13 -3 0 -10 9
-16 21 -10 18 -9 19 7 11 27 -15 35 -15 45 0 8 10 9 9 4 -4 -3 -10 -1 -20 4
-23 6 -4 10 -1 10 5 0 7 7 10 15 6 8 -3 21 4 30 17 8 12 15 17 15 11 0 -5 -5
-15 -12 -22 -9 -9 -9 -12 0 -12 7 0 12 -5 12 -11 0 -8 -4 -8 -13 0 -11 8 -14
5 -14 -18 0 -21 5 -28 16 -26 9 2 18 4 21 4 3 1 0 5 -6 9 -9 5 -8 10 1 19 10
9 12 6 11 -17 0 -15 -4 -26 -9 -23 -4 2 -6 -7 -3 -21 3 -15 1 -24 -5 -21 -5 4
-9 -1 -9 -10 0 -9 4 -13 10 -10 10 6 4 -20 -10 -40 -3 -5 -7 -26 -9 -45 -1
-19 -7 -39 -13 -45 -8 -7 -9 -6 -3 3 6 11 3 12 -14 2 -16 -8 -26 -8 -35 -1
-10 8 -19 6 -36 -9 -13 -11 -19 -20 -15 -20 5 0 16 7 26 16 16 14 18 14 29 -8
10 -19 10 -21 -1 -11 -10 10 -16 9 -31 -4 -14 -13 -20 -13 -33 -3 -8 7 -12 17
-8 23 3 6 1 7 -5 3 -13 -8 -5 -36 12 -36 6 0 4 -5 -4 -10 -21 -14 -30 -12 -24
4 3 8 1 17 -5 21 -7 4 -8 0 -4 -11 5 -13 3 -15 -7 -9 -8 5 -11 4 -6 -3 3 -6
-2 -15 -11 -21 -10 -6 -13 -11 -7 -11 5 0 15 5 22 12 7 7 12 8 12 3 -1 -12
-26 -47 -34 -46 -24 3 -27 0 -15 -16 12 -15 12 -16 -4 -10 -12 4 -16 3 -11 -4
4 -6 0 -16 -7 -21 -11 -8 -10 -9 4 -4 11 3 17 0 17 -10 0 -8 5 -12 10 -9 8 5
8 11 0 20 -8 10 -4 12 20 9 27 -3 29 -2 18 15 -10 17 -13 18 -23 5 -9 -13 -11
-12 -12 4 -1 16 5 19 33 17 38 -2 38 -2 23 27 -9 16 -8 19 2 13 8 -6 10 -4 4
5 -6 10 -4 12 8 7 10 -4 20 0 26 11 8 13 10 13 11 3 0 -11 4 -10 16 5 8 10 12
13 9 6 -6 -12 -3 -12 15 -2 16 9 19 14 10 20 -17 11 4 22 25 14 15 -6 15 -8 2
-16 -9 -4 -14 -17 -12 -28 3 -17 1 -18 -15 -10 -14 8 -25 4 -49 -15 -16 -14
-33 -35 -37 -47 -5 -16 -8 -18 -15 -7 -4 7 -11 10 -14 7 -4 -4 -3 -13 1 -20
17 -26 13 -38 -7 -28 -11 7 -19 7 -19 1 0 -5 6 -12 13 -15 8 -4 7 -5 -3 -4 -8
1 -28 -4 -43 -10 -16 -7 -33 -10 -38 -6 -5 3 -9 1 -9 -4 0 -6 -18 -9 -40 -8
-22 0 -40 -2 -40 -6 0 -14 -127 5 -194 29 -67 24 -116 53 -88 53 6 0 9 7 6 15
-4 8 -3 23 1 33 4 9 10 32 12 51 2 19 8 42 13 52 6 10 10 29 10 43 0 14 3 26
8 26 4 0 8 10 8 23 3 44 8 66 15 61 3 -2 7 8 7 22 0 15 5 30 12 34 9 5 9 9 1
14 -6 4 -11 12 -11 19 0 6 6 3 13 -8 10 -12 16 -14 21 -7 4 7 2 12 -3 12 -6 0
-11 8 -10 18 0 10 3 12 6 4 7 -18 23 -4 17 16 -5 14 -4 14 4 2 6 -8 23 -15 39
-15z m1113 -166 c0 -5 -4 -9 -8 -9 -5 0 -9 7 -9 15 0 8 4 12 9 9 4 -3 8 -9 8
-15z m37 -97 c1 -73 0 -78 -20 -79 -16 -2 -18 0 -8 6 8 5 10 14 6 21 -5 9 -4
11 3 6 15 -9 15 -1 1 25 -5 11 -15 16 -21 13 -7 -4 -8 -2 -4 5 6 9 11 9 22 0
17 -14 19 2 2 19 -9 9 -9 12 1 12 7 0 9 5 6 10 -4 6 -11 8 -16 4 -6 -3 -5 3 3
15 7 12 15 21 18 21 3 0 6 -35 7 -78z m-59 -7 c-3 -3 -9 2 -12 12 -6 14 -5 15
5 6 7 -7 10 -15 7 -18z m-695 -93 c-10 -10 -20 -14 -22 -9 -2 5 3 13 10 18 24
15 30 10 12 -9z m-93 -2 c0 -5 -5 -10 -11 -10 -5 0 -7 5 -4 10 3 6 8 10 11 10
2 0 4 -4 4 -10z m850 0 c0 -5 -4 -10 -10 -10 -5 0 -10 5 -10 10 0 6 5 10 10
10 6 0 10 -4 10 -10z m-3 -87 c-1 -38 -5 -71 -11 -75 -7 -5 -7 -8 1 -8 16 0
14 -150 -2 -150 -6 0 -6 -3 1 -8 5 -4 11 -35 11 -69 1 -53 -1 -61 -17 -60 -16
1 -16 3 -3 24 9 14 11 23 4 23 -5 0 -8 6 -5 14 3 8 1 24 -5 35 -10 18 -9 20 6
14 15 -6 16 -4 6 8 -7 9 -8 20 -3 29 5 8 5 21 0 30 -5 9 -5 22 -1 28 4 7 6 27
4 45 -2 18 -3 39 -3 47 1 8 1 43 1 78 1 34 4 62 9 62 4 0 7 -30 7 -67z m-800
42 c0 -8 -6 -16 -14 -19 -11 -4 -11 -1 -3 14 13 24 17 25 17 5z m38 -15 c3 -6
-1 -7 -9 -4 -18 7 -21 14 -7 14 6 0 13 -4 16 -10z m-455 -116 c94 -25 232 -22
350 6 52 12 103 27 113 32 23 12 24 19 -31 -231 l-47 -214 -68 -23 c-117 -39
-209 -49 -303 -31 -83 16 -234 73 -234 89 0 5 18 82 41 171 22 88 38 169 36
179 -3 10 -2 16 3 13 4 -2 10 9 14 26 6 29 6 29 34 15 15 -8 57 -22 92 -32z
m1175 -224 c3 -5 1 -10 -4 -10 -6 0 -11 5 -11 10 0 6 2 10 4 10 3 0 8 -4 11
-10z m43 -95 c-1 -14 -6 -25 -11 -25 -5 0 -7 6 -4 14 3 7 0 19 -6 25 -8 8 -7
11 6 11 12 0 16 -7 15 -25z m-1 -69 c-1 -19 -4 -33 -8 -31 -9 6 -9 65 0 65 5
0 8 -15 8 -34z m1 -142 c0 -52 -4 -94 -8 -94 -4 0 -6 37 -5 83 0 45 -3 90 -7
99 -6 13 -5 16 6 12 11 -4 14 -27 14 -100z m-28 50 c0 -8 -19 -13 -24 -6 -3 5
1 9 9 9 8 0 15 -2 15 -3z m-2437 -149 c4 -8 3 -16 -1 -19 -4 -3 -9 4 -9 15 -2
23 3 25 10 4z m2467 -21 c0 -8 -4 -12 -10 -9 -5 3 -10 10 -10 16 0 5 5 9 10 9
6 0 10 -7 10 -16z m-43 -9 c0 -8 -4 -12 -9 -9 -5 3 -6 10 -3 15 9 13 12 11 12
-6z m40 -95 c-1 -43 -5 -81 -8 -84 -3 -3 -5 27 -4 66 0 40 -3 81 -7 90 -6 13
-5 16 6 12 11 -4 14 -24 13 -84z m-2462 70 c3 -5 1 -10 -4 -10 -6 0 -11 5 -11
10 0 6 2 10 4 10 3 0 8 -4 11 -10z m-15 -40 c0 -5 -5 -10 -11 -10 -5 0 -7 5
-4 10 3 6 8 10 11 10 2 0 4 -4 4 -10z m100 -165 c0 -5 -5 -3 -10 5 -5 8 -10
20 -10 25 0 6 5 3 10 -5 5 -8 10 -19 10 -25z m2400 27 c0 -2 -6 -10 -14 -17
-12 -12 -15 -12 -20 0 -3 8 -14 12 -26 10 -11 -2 -18 -1 -16 3 4 8 76 11 76 4z
m-47 -37 c-3 -9 -8 -14 -10 -11 -3 3 -2 9 2 15 9 16 15 13 8 -4z m59 -9 c7 4
8 2 4 -5 -10 -15 -26 -4 -25 17 1 15 2 15 6 -1 2 -9 9 -14 15 -11z m-35 -11
c0 -8 -4 -12 -9 -9 -5 3 -6 10 -3 15 9 13 12 11 12 -6z m-2377 -5 c0 -5 -5
-10 -11 -10 -5 0 -7 5 -4 10 3 6 8 10 11 10 2 0 4 -4 4 -10z m2427 -22 c-3 -8
-6 -5 -6 6 -1 11 2 17 5 13 3 -3 4 -12 1 -19z m-2470 -80 c-3 -8 -6 -5 -6 6
-1 11 2 17 5 13 3 -3 4 -12 1 -19z m2503 18 c0 -3 -4 -8 -10 -11 -5 -3 -10 -1
-10 4 0 6 5 11 10 11 6 0 10 -2 10 -4z m-5 -35 c3 -5 2 -12 -3 -15 -5 -3 -9 1
-9 9 0 17 3 19 12 6z m-2498 -16 c0 -8 -4 -12 -9 -9 -5 3 -6 10 -3 15 9 13 12
11 12 -6z m2463 -6 c0 -5 -4 -9 -8 -9 -5 0 -9 7 -9 15 0 8 4 12 9 9 4 -3 8 -9
8 -15z m-55 1 c-3 -5 -12 -10 -18 -10 -7 0 -6 4 3 10 19 12 23 12 15 0z m95
-14 c0 -3 -4 -8 -10 -11 -5 -3 -10 -1 -10 4 0 6 5 11 10 11 6 0 10 -2 10 -4z
m-2447 -20 c3 3 5 0 3 -8 -3 -18 -25 -55 -26 -42 0 5 5 15 12 22 8 8 8 12 1
12 -6 0 -14 7 -17 16 -5 13 -4 14 7 6 8 -7 16 -9 20 -6z m1112 -6 c-3 -5 -12
-10 -18 -10 -7 0 -6 4 3 10 19 12 23 12 15 0z m1039 2 c3 -5 -1 -9 -9 -9 -8 0
-12 4 -9 9 3 4 7 8 9 8 2 0 6 -4 9 -8z m253 -17 c-4 -8 -12 -15 -19 -14 -10 0
-10 2 0 6 6 2 12 12 12 21 0 8 3 13 6 9 4 -3 4 -13 1 -22z m-1477 11 c0 -2 -8
-10 -17 -17 -16 -13 -17 -12 -4 4 13 16 21 21 21 13z m1280 0 c0 -2 -8 -10
-17 -17 -16 -13 -17 -12 -4 4 13 16 21 21 21 13z m240 0 c0 -3 -4 -8 -10 -11
-5 -3 -10 -1 -10 4 0 6 5 11 10 11 6 0 10 -2 10 -4z m-1965 -16 c3 -5 1 -10
-4 -10 -6 0 -11 5 -11 10 0 6 2 10 4 10 3 0 8 -4 11 -10z m145 -28 c0 -1 -9 2
-20 8 -11 6 -20 15 -20 20 0 6 9 2 20 -7 11 -10 20 -19 20 -21z m411 14 c-6
-7 -9 -15 -6 -18 3 -2 -1 -5 -8 -5 -8 0 -14 6 -14 13 0 7 5 12 11 11 6 -1 10
4 8 11 -1 8 2 11 8 7 8 -5 8 -11 1 -19z m129 20 c0 -2 -7 -7 -16 -10 -8 -3
-12 -2 -9 4 6 10 25 14 25 6z m250 -6 c-8 -5 -19 -10 -25 -10 -5 0 -3 5 5 10
8 5 20 10 25 10 6 0 3 -5 -5 -10z m-1374 -15 c-3 -24 -12 -27 -27 -8 -9 11
-10 14 -1 9 6 -4 12 -2 12 3 0 6 4 11 9 11 5 0 8 -7 7 -15z m60 0 c-2 -14 -16
-22 -16 -10 0 3 0 10 0 15 0 6 4 10 9 10 5 0 8 -7 7 -15z m114 0 c7 -8 9 -15
6 -15 -4 0 -14 7 -22 15 -9 8 -11 15 -6 15 5 0 15 -7 22 -15z m87 -7 c-3 -8
-6 -5 -6 6 -1 11 2 17 5 13 3 -3 4 -12 1 -19z m100 7 c0 -8 -4 -12 -9 -9 -5 3
-6 10 -3 15 9 13 12 11 12 -6z m880 0 c0 -8 -6 -16 -14 -19 -11 -4 -11 -1 -3
14 13 24 17 25 17 5z m273 -7 c0 -6 -6 -5 -15 2 -8 7 -15 14 -15 16 0 2 7 1
15 -2 8 -4 15 -11 15 -16z m47 0 c1 -10 -3 -18 -8 -18 -6 0 -8 4 -4 9 3 6 -3
14 -12 20 -16 9 -16 10 3 8 12 0 21 -8 21 -19z m146 2 c3 -11 1 -18 -4 -14 -5
3 -9 12 -9 20 0 20 7 17 13 -6z m90 0 c-3 -12 -8 -19 -11 -16 -5 6 5 36 12 36
2 0 2 -9 -1 -20z m418 7 c-6 -8 -7 -18 -3 -23 4 -4 -1 -2 -10 5 -19 14 -25 26
-9 16 5 -3 12 -1 16 5 3 5 9 10 12 10 3 0 0 -6 -6 -13z m-567 -13 c3 -8 2 -12
-4 -9 -6 3 -10 10 -10 16 0 14 7 11 14 -7z m329 -1 c-3 -7 -6 -13 -8 -13 -2 0
-5 6 -8 13 -3 8 1 14 8 14 7 0 11 -6 8 -14z m427 13 c0 -9 -30 -14 -35 -6 -4
6 3 10 14 10 12 0 21 -2 21 -4z m-566 -14 c2 -4 -5 -9 -17 -9 -17 -2 -19 0 -7
7 18 12 18 12 24 2z"/>
<path d="M2666 6218 c3 -5 10 -6 15 -3 13 9 11 12 -6 12 -8 0 -12 -4 -9 -9z"/>
<path d="M2093 5748 c-2 -5 -1 -8 3 -8 4 0 -3 -11 -17 -26 -17 -18 -19 -23 -6
-18 9 3 17 9 17 13 0 4 7 8 15 8 18 0 20 -13 3 -20 -10 -4 -10 -6 0 -6 8 -1
16 8 19 19 6 22 14 25 29 10 6 -6 15 -6 24 1 12 8 11 9 -5 7 -13 -2 -20 2 -19
12 1 11 -8 16 -28 15 -17 0 -32 -3 -35 -7z m47 -5 c0 -1 -8 -7 -18 -12 -13 -7
-19 -6 -19 2 0 7 9 13 19 13 10 0 18 -1 18 -3z"/>
<path d="M2406 5751 c-4 -5 -2 -12 3 -15 5 -4 12 -2 15 3 4 5 2 12 -3 15 -5 4
-12 2 -15 -3z"/>
<path d="M2518 5749 c10 -13 8 -19 -8 -34 -11 -10 -20 -23 -20 -29 0 -7 3 -7
8 1 9 15 26 5 36 -21 5 -14 10 -16 18 -8 7 7 17 8 29 2 21 -12 31 0 18 20 -6
10 -9 11 -9 3 0 -7 -5 -13 -11 -13 -5 0 -7 5 -3 12 4 7 3 8 -4 4 -15 -9 -16 6
-1 21 7 7 8 17 1 28 -7 13 -11 14 -17 6 -5 -9 -13 -7 -28 6 -15 13 -18 13 -9
2z m52 -29 c0 -5 -5 -12 -11 -15 -6 -4 -8 -13 -5 -21 3 -7 1 -16 -4 -19 -6 -4
-10 1 -10 10 0 8 -7 18 -15 21 -11 4 -12 10 -6 18 12 14 51 19 51 6z"/>
<path d="M2536 5708 c3 -5 10 -6 15 -3 13 9 11 12 -6 12 -8 0 -12 -4 -9 -9z"/>
<path d="M2431 5727 c-13 -21 -12 -21 5 -5 10 10 16 20 13 22 -3 3 -11 -5 -18
-17z"/>
<path d="M2382 5727 c10 -8 14 -18 10 -22 -4 -5 -1 -5 6 -1 17 10 15 14 -10
26 -21 10 -21 10 -6 -3z"/>
<path d="M2462 5720 c0 -14 2 -19 5 -12 2 6 2 18 0 25 -3 6 -5 1 -5 -13z"/>
<path d="M2205 5720 c3 -5 8 -10 11 -10 2 0 4 5 4 10 0 6 -5 10 -11 10 -5 0
-7 -4 -4 -10z"/>
<path d="M2335 5711 c-3 -5 -2 -12 3 -15 5 -3 9 1 9 9 0 17 -3 19 -12 6z"/>
<path d="M2187 5699 c7 -7 15 -10 18 -7 3 3 -2 9 -12 12 -14 6 -15 5 -6 -5z"/>
<path d="M2435 5700 c-3 -5 -1 -10 4 -10 6 0 11 5 11 10 0 6 -2 10 -4 10 -3 0
-8 -4 -11 -10z"/>
<path d="M2070 5680 c-9 -6 -10 -10 -3 -10 6 0 15 5 18 10 8 12 4 12 -15 0z"/>
<path d="M2118 5678 c-9 -5 -6 -7 9 -5 12 2 25 6 28 8 8 9 -23 6 -37 -3z"/>
<path d="M2510 5656 c0 -2 8 -10 18 -17 15 -13 16 -12 3 4 -13 16 -21 21 -21
13z"/>
<path d="M2055 5640 c-3 -5 -1 -10 4 -10 6 0 11 5 11 10 0 6 -2 10 -4 10 -3 0
-8 -4 -11 -10z"/>
<path d="M2555 5640 c-4 -6 -4 -14 -1 -17 3 -4 6 -1 6 5 0 7 5 12 10 12 6 0 9
-5 8 -11 -2 -6 4 -14 12 -16 12 -4 12 -3 2 5 -8 5 -13 13 -12 18 2 13 -17 16
-25 4z"/>
<path d="M2455 5620 c3 -5 8 -10 11 -10 2 0 4 5 4 10 0 6 -5 10 -11 10 -5 0
-7 -4 -4 -10z"/>
<path d="M2506 5602 c-2 -4 7 -8 20 -8 13 -1 24 1 24 5 0 9 -38 12 -44 3z"/>
<path d="M2484 5562 c23 -26 23 -26 23 -7 0 8 -3 13 -5 10 -3 -3 -12 1 -21 7
-10 8 -9 4 3 -10z"/>
<path d="M2556 5563 c-6 -14 -5 -15 5 -6 7 7 10 15 7 18 -3 3 -9 -2 -12 -12z"/>
<path d="M2557 5529 c7 -7 15 -10 18 -7 3 3 -2 9 -12 12 -14 6 -15 5 -6 -5z"/>
<path d="M2466 5519 c4 -8 30 -6 38 2 3 3 -5 5 -19 5 -13 0 -22 -3 -19 -7z"/>
<path d="M2530 5520 c0 -5 5 -10 11 -10 5 0 7 5 4 10 -3 6 -8 10 -11 10 -2 0
-4 -4 -4 -10z"/>
<path d="M2416 5498 c3 -4 11 -5 19 -1 21 7 19 12 -4 10 -11 0 -18 -5 -15 -9z"/>
<path d="M2476 5415 c-11 -8 -17 -17 -14 -20 2 -3 13 4 23 15 21 23 18 25 -9
5z"/>
<path d="M2316 5398 c3 -5 10 -6 15 -3 13 9 11 12 -6 12 -8 0 -12 -4 -9 -9z"/>
<path d="M2360 5400 c-13 -8 -12 -10 3 -10 9 0 17 5 17 10 0 12 -1 12 -20 0z"/>
<path d="M2326 5338 c3 -5 10 -6 15 -3 13 9 11 12 -6 12 -8 0 -12 -4 -9 -9z"/>
<path d="M2295 5299 c-3 -4 2 -6 10 -5 21 3 28 13 10 13 -9 0 -18 -4 -20 -8z"/>
<path d="M2340 5300 c0 -5 7 -7 15 -4 8 4 15 8 15 10 0 2 -7 4 -15 4 -8 0 -15
-4 -15 -10z"/>
<path d="M3140 6265 c0 -7 30 -13 34 -7 3 4 -4 9 -15 9 -10 1 -19 0 -19 -2z"/>
<path d="M3107 6228 c19 -21 31 -25 14 -5 -6 8 -9 16 -6 19 3 2 -2 5 -10 5
-13 0 -13 -3 2 -19z"/>
<path d="M3130 6240 c0 -5 5 -10 10 -10 6 0 10 5 10 10 0 6 -4 10 -10 10 -5 0
-10 -4 -10 -10z"/>
<path d="M4151 6199 c-36 -7 -63 -27 -55 -40 3 -5 1 -9 -5 -9 -6 0 -10 -65
-10 -166 -1 -132 1 -164 11 -158 10 6 10 5 1 -7 -13 -17 -14 -127 -1 -153 7
-12 7 -16 0 -12 -6 4 -10 -15 -10 -49 1 -33 5 -55 12 -55 8 0 8 -2 0 -8 -6 -4
-10 -20 -10 -37 0 -16 4 -33 10 -37 7 -5 7 -8 -1 -8 -7 0 -13 -11 -13 -25 0
-14 6 -25 13 -25 7 0 8 -3 2 -8 -12 -9 -20 -66 -8 -59 5 3 9 -3 9 -13 0 -10
-3 -17 -7 -14 -4 2 -7 -32 -7 -76 0 -44 3 -78 7 -76 4 3 7 -4 7 -14 0 -10 -4
-16 -8 -14 -4 3 -8 -2 -8 -10 0 -9 6 -16 13 -16 8 0 8 -3 1 -8 -5 -4 -11 -29
-12 -57 -2 -37 0 -46 7 -35 7 9 11 10 11 3 0 -6 -5 -15 -10 -18 -8 -5 -7 -12
2 -23 10 -12 10 -14 1 -8 -9 5 -13 0 -13 -13 0 -12 6 -21 13 -21 7 0 8 -3 2
-8 -16 -11 -18 -44 -3 -53 11 -7 11 -9 -1 -9 -11 0 -11 -3 0 -17 8 -9 9 -14 2
-10 -12 7 -14 -52 -17 -348 l-1 -130 -87 0 c-54 0 -88 -4 -88 -10 0 -5 -5 -3
-10 5 -6 10 -10 -42 -10 -155 l0 -170 1346 5 c740 3 1351 2 1359 -2 10 -6 13
25 12 162 l0 170 -78 0 -79 0 0 243 c0 133 0 534 0 890 0 583 -1 652 -16 683
l-17 35 -601 -2 c-433 -1 -603 -5 -608 -13 -5 -7 -8 -7 -8 3 0 11 -3 11 -15 1
-11 -9 -15 -9 -15 -1 0 7 -5 9 -10 6 -6 -4 -8 -10 -5 -15 3 -5 0 -12 -7 -16
-7 -4 -10 -4 -6 1 17 19 -12 32 -54 25 -24 -5 -50 -4 -59 1 -9 4 -19 6 -22 2
-4 -3 -33 -5 -67 -4 -42 1 -60 -3 -60 -11 0 -10 -2 -10 -8 -1 -4 7 -39 11 -94
11 -76 0 -86 -2 -81 -16 5 -15 4 -15 -8 0 -14 18 -104 28 -126 15 -6 -4 -24
-2 -42 3 -29 8 -31 7 -27 -16 3 -14 1 -22 -5 -19 -5 4 -7 10 -4 15 6 9 -12 23
-32 26 -7 1 -13 -2 -13 -7 0 -6 -6 -7 -12 -2 -15 9 -224 11 -267 2z m673 -25
c3 -8 2 -12 -4 -9 -6 3 -10 10 -10 16 0 14 7 11 14 -7z m120 0 c3 -8 2 -12 -4
-9 -6 3 -10 10 -10 16 0 14 7 11 14 -7z m40 0 c3 -8 2 -12 -4 -9 -6 3 -10 10
-10 16 0 14 7 11 14 -7z m106 12 c0 -3 -4 -8 -10 -11 -5 -3 -10 -1 -10 4 0 6
5 11 10 11 6 0 10 -2 10 -4z m-540 -10 c0 -2 -8 -10 -17 -17 -16 -13 -17 -12
-4 4 13 16 21 21 21 13z m51 -23 c13 -16 12 -17 -3 -4 -10 7 -18 15 -18 17 0
8 8 3 21 -13z m-111 -17 c0 -2 -8 -10 -17 -17 -16 -13 -17 -12 -4 4 13 16 21
21 21 13z m80 -10 c0 -2 -7 -7 -16 -10 -8 -3 -12 -2 -9 4 6 10 25 14 25 6z
m1800 -482 c0 -8 -19 -13 -24 -6 -3 5 1 9 9 9 8 0 15 -2 15 -3z m218 -1429
c-3 -3 -9 2 -12 12 -6 14 -5 15 5 6 7 -7 10 -15 7 -18z m-1808 -91 c0 -8 -19
-13 -24 -6 -3 5 1 9 9 9 8 0 15 -2 15 -3z"/>
<path d="M7204 6198 c-50 -24 -49 0 -49 -945 l0 -883 -67 0 c-38 0 -68 -4 -69
-10 0 -5 -1 -50 -1 -100 0 -49 1 -112 1 -140 l1 -50 145 0 144 0 -19 -44 c-10
-24 -16 -47 -13 -50 4 -3 1 -6 -5 -6 -7 0 -12 -4 -12 -10 0 -5 8 -7 18 -4 14
5 15 4 2 -5 -13 -10 -12 -14 7 -30 16 -14 19 -21 10 -30 -14 -14 -27 -14 -27
0 0 5 5 7 10 4 16 -10 11 4 -9 26 l-18 20 -6 -21 c-3 -11 -2 -18 1 -16 4 2 8
-7 8 -20 2 -20 0 -22 -10 -12 -6 7 -10 11 -9 9 2 -2 -2 -10 -8 -18 -10 -11 10
-13 115 -13 121 0 126 1 126 21 0 11 4 18 10 14 5 -3 6 -13 3 -23 -7 -18 -5
-17 17 12 8 11 10 17 3 13 -6 -4 -14 -1 -16 5 -4 9 -12 5 -25 -11 -14 -18 -24
-22 -38 -16 -11 4 -24 7 -31 6 -15 -2 -26 16 -18 29 5 8 12 7 22 -2 14 -11 15
-10 9 8 -9 28 18 52 38 35 12 -10 17 -8 26 9 9 16 8 21 -5 26 -13 5 -12 9 6
25 17 14 25 16 35 8 8 -6 11 -16 7 -23 -5 -7 -9 -5 -11 6 -3 14 -6 15 -17 5
-9 -8 -10 -16 -3 -24 7 -9 7 -17 -1 -26 -6 -8 -7 -18 -3 -22 4 -5 0 -5 -8 0
-12 7 -13 6 -2 -6 11 -12 15 -11 23 4 6 10 20 23 32 28 22 10 22 10 0 5 -26
-5 -30 6 -8 24 12 10 15 10 15 0 0 -8 3 -10 6 -7 4 4 2 13 -5 21 -9 11 -8 15
5 20 9 4 14 9 11 13 -4 3 -13 0 -22 -7 -14 -12 -20 -5 -17 22 1 3 -6 9 -14 12
-12 5 -15 2 -10 -9 3 -9 2 -14 -3 -10 -5 3 -11 0 -13 -7 -3 -7 -7 -5 -11 6 -4
9 -3 15 2 11 5 -3 11 0 13 6 5 15 58 21 58 8 0 -6 -4 -8 -8 -5 -5 3 -9 -2 -9
-10 0 -10 7 -8 25 8 24 21 25 22 19 3 -7 -19 -6 -19 7 -2 15 20 31 23 20 5 -6
-10 -4 -10 7 0 10 9 232 12 1036 12 l1024 0 -3 148 -3 147 -67 0 c-36 0 -70 4
-74 8 -5 4 -9 410 -9 902 -1 860 -1 894 -19 914 l-19 21 -1116 -1 c-747 0
-1123 -4 -1137 -11z m241 -2138 c-3 -5 -12 -10 -18 -10 -7 0 -6 4 3 10 19 12
23 12 15 0z m-110 -28 c-14 -10 -17 -39 -5 -47 5 -3 10 3 10 14 0 11 5 23 10
26 6 4 8 11 5 16 -4 5 -1 9 4 9 13 0 14 -5 2 -28 -5 -9 -12 -25 -15 -34 -7
-24 -39 -11 -33 13 3 10 0 20 -7 22 -8 3 -7 9 3 21 10 12 17 14 25 6 7 -7 7
-13 1 -18z m68 -7 c-3 -9 -8 -14 -10 -11 -3 3 -2 9 2 15 9 16 15 13 8 -4z m43
-4 c-4 -5 -2 -11 3 -13 5 -1 3 -9 -5 -16 -12 -11 -13 -9 -10 10 6 30 5 28 12
28 3 0 3 -4 0 -9z m-36 -39 c0 -1 -9 2 -20 8 -11 6 -20 15 -20 20 0 6 9 2 20
-7 11 -10 20 -19 20 -21z m-112 11 c-2 -10 7 -22 22 -30 18 -9 20 -13 8 -13
-10 0 -18 -4 -18 -10 0 -5 -5 -10 -11 -10 -8 0 -8 4 0 14 9 10 8 16 -3 25 -8
7 -12 19 -9 27 7 19 15 18 11 -3z m122 -33 c-8 -5 -22 -9 -30 -9 -10 0 -8 3 5
9 27 12 43 12 25 0z m40 0 c0 -5 -2 -10 -4 -10 -3 0 -8 5 -11 10 -3 6 -1 10 4
10 6 0 11 -4 11 -10z m-95 -27 c-1 -10 -4 -25 -7 -33 -4 -8 -9 -22 -11 -30 -4
-10 -6 -7 -6 7 -1 12 4 25 9 28 6 4 8 15 5 26 -4 10 -2 19 3 19 5 0 8 -8 7
-17z m-25 -13 c0 -5 -4 -10 -10 -10 -5 0 -10 5 -10 10 0 6 5 10 10 10 6 0 10
-4 10 -10z m-25 -40 c-10 -11 -25 -20 -34 -19 -11 0 -9 3 5 9 12 5 25 13 29
19 3 6 9 11 12 11 3 0 -2 -9 -12 -20z"/>
<path d="M828 4333 c24 -17 30 -35 8 -27 -8 3 -17 0 -22 -7 -5 -9 -2 -10 9 -6
10 3 17 3 17 -2 0 -16 -13 -20 -36 -11 -15 6 -26 5 -30 -2 -4 -6 -3 -8 3 -5 5
3 21 0 36 -8 16 -8 29 -10 32 -4 4 5 3 9 0 9 -4 0 3 13 14 29 19 27 20 29 3
36 -9 5 -26 9 -37 11 -18 3 -18 2 3 -13z"/>
<path d="M795 4320 c-3 -5 -1 -10 4 -10 6 0 11 5 11 10 0 6 -2 10 -4 10 -3 0
-8 -4 -11 -10z"/>
<path d="M794 4251 c4 -6 16 -16 28 -22 15 -8 18 -8 14 0 -4 6 -16 16 -28 22
-15 8 -18 8 -14 0z"/>
<path d="M776 4078 c3 -5 10 -6 15 -3 13 9 11 12 -6 12 -8 0 -12 -4 -9 -9z"/>
<path d="M1347 4075 c-7 -16 8 -29 23 -20 10 6 2 35 -10 35 -4 0 -10 -7 -13
-15z"/>
<path d="M1655 4080 c-3 -5 -1 -10 4 -10 6 0 11 5 11 10 0 6 -2 10 -4 10 -3 0
-8 -4 -11 -10z"/>
<path d="M3227 4049 c7 -7 15 -10 18 -7 3 3 -2 9 -12 12 -14 6 -15 5 -6 -5z"/>
<path d="M690 4035 c0 -14 17 -16 108 -14 76 1 109 5 109 13 0 16 -39 18 -49
3 -6 -9 -8 -9 -8 1 0 8 -23 12 -80 12 -66 0 -80 -3 -80 -15z"/>
<path d="M7417 3933 c-9 -15 0 -57 12 -61 7 -2 18 4 26 14 11 16 11 22 -2 37
-17 18 -29 22 -36 10z m23 -18 c17 10 19 -13 3 -26 -10 -8 -14 -9 -10 -2 4 6
3 14 -3 18 -5 3 -10 12 -9 18 0 9 2 8 6 -1 2 -6 9 -10 13 -7z"/>
<path d="M7528 3933 c-9 -2 -19 -12 -23 -21 -3 -9 -3 -13 1 -9 4 4 13 2 20 -4
8 -7 14 -7 19 1 4 6 3 10 -2 9 -22 -4 -25 2 -7 16 20 15 19 15 -8 8z"/>
<path d="M7380 3890 c0 -5 5 -10 11 -10 5 0 7 5 4 10 -3 6 -8 10 -11 10 -2 0
-4 -4 -4 -10z"/>
<path d="M7510 3860 c0 -5 5 -10 11 -10 5 0 7 5 4 10 -3 6 -8 10 -11 10 -2 0
-4 -4 -4 -10z"/>
<path d="M4073 3358 c-16 -4 -39 -18 -51 -31 l-22 -24 -3 -869 -2 -869 -35 -1
c-19 -1 -41 -2 -47 -3 -10 -1 -13 -37 -13 -146 l0 -145 198 -1 c454 -2 2271 1
2322 4 30 2 63 0 73 -5 10 -5 17 -5 17 1 0 6 6 8 13 6 6 -2 24 -6 39 -9 l27
-4 3 134 c2 74 0 134 -4 134 -4 0 -5 6 -2 14 4 11 -8 13 -61 12 -63 -1 -67 0
-81 28 -16 33 -17 39 -6 32 4 -2 9 4 9 15 1 10 -2 19 -6 19 -5 0 -11 14 -13
30 -3 17 -2 30 2 30 4 0 4 21 0 46 -5 31 -3 49 5 58 9 9 9 14 -2 24 -8 8 -10
19 -5 30 4 9 7 28 6 42 -9 132 -7 163 9 155 6 -4 3 1 -7 9 -11 9 -15 16 -10
16 6 0 7 26 4 65 -4 52 -3 65 10 69 10 2 8 4 -5 5 -17 1 -18 3 -5 11 8 5 11
10 5 10 -5 0 -9 17 -8 37 1 21 2 38 3 38 1 0 3 8 5 18 2 9 0 15 -4 12 -4 -2
-8 2 -8 10 0 8 4 12 9 9 4 -3 8 0 8 5 0 6 -6 11 -12 11 -9 0 -10 3 -2 8 6 4 9
16 7 27 -8 43 -9 74 -1 69 4 -3 8 -1 8 5 0 5 -6 12 -12 14 -10 4 -10 6 0 6 6
1 12 6 12 12 0 5 -4 7 -10 4 -5 -3 -10 -1 -10 4 0 6 3 11 8 11 4 0 8 11 8 25
1 14 -1 23 -5 20 -4 -2 -8 2 -8 10 0 8 3 12 7 10 3 -2 6 14 6 35 0 24 -4 36
-11 33 -5 -3 -5 0 2 7 9 9 9 19 2 33 -8 14 -8 18 0 13 12 -8 11 21 -2 42 -5 6
-5 12 0 12 4 0 7 64 6 142 -2 100 1 146 10 157 9 11 9 13 0 8 -8 -5 -11 2 -11
22 1 19 5 28 12 24 6 -3 5 0 -1 8 -7 7 -13 17 -13 22 0 4 6 5 13 1 7 -5 6 0
-3 11 -9 11 -10 16 -2 11 9 -5 12 4 12 34 0 29 -4 39 -12 34 -7 -5 -8 -3 -3 5
9 16 -14 61 -32 61 -7 0 -13 4 -13 9 0 5 -10 13 -22 17 -30 11 -2256 12 -2295
2z m1653 -1044 c-4 -9 -11 -12 -18 -8 -10 6 -10 5 -1 -7 8 -10 9 -26 3 -54 -5
-22 -21 -93 -36 -157 -15 -65 -30 -118 -34 -118 -4 0 -7 -12 -6 -27 1 -15 -5
-28 -14 -31 -13 -4 -13 -3 -2 10 15 19 2 31 -18 17 -10 -6 -11 -9 -2 -9 14 0
12 -21 -3 -33 -5 -5 1 -6 15 -2 21 5 22 4 7 -5 -9 -6 -25 -13 -35 -15 -9 -2
-32 -9 -51 -14 -19 -6 -38 -8 -42 -5 -5 3 -9 0 -9 -6 0 -8 -6 -8 -20 0 -15 8
-20 8 -18 -1 2 -6 -6 -13 -17 -14 -97 -16 -95 -16 -96 2 0 14 -2 13 -9 -4 -9
-23 -30 -32 -30 -13 0 6 -9 6 -22 1 -25 -9 -49 -4 -60 13 -5 8 -8 7 -8 -1 0
-12 -59 -7 -70 6 -3 3 -14 7 -25 8 -30 2 -48 8 -65 18 -8 5 -23 10 -32 11 -30
2 -31 4 -19 17 6 8 8 17 5 20 -3 3 -2 11 2 18 4 7 9 24 10 37 5 41 12 52 31
46 16 -5 16 -4 1 5 -12 8 -15 20 -11 44 3 17 9 34 14 35 5 2 7 8 4 12 -3 5 1
24 8 42 8 18 12 39 9 47 -2 8 0 11 5 8 5 -3 9 2 10 11 1 23 13 94 18 110 5 13
54 9 79 -6 5 -3 27 -7 49 -9 22 -2 45 -7 51 -11 15 -9 134 -8 221 3 39 5 75 9
80 10 6 0 16 4 24 9 11 7 12 6 6 -5 -7 -11 -6 -12 6 -2 14 12 57 24 92 26 9 1
18 6 18 12 1 5 3 2 6 -8 3 -10 2 -25 -1 -33z m709 -682 c-3 -3 -11 0 -18 7 -9
10 -8 11 6 5 10 -3 15 -9 12 -12z m5 -46 c0 -3 -4 -8 -10 -11 -5 -3 -10 -1
-10 4 0 6 5 11 10 11 6 0 10 -2 10 -4z m-1830 -262 c0 -8 -19 -13 -24 -6 -3 5
1 9 9 9 8 0 15 -2 15 -3z m535 -24 c3 -5 1 -10 -4 -10 -6 0 -11 5 -11 10 0 6
2 10 4 10 3 0 8 -4 11 -10z m68 3 c3 -5 -6 -9 -20 -10 -19 -1 -22 1 -12 8 17
11 26 11 32 2z m51 -1 c2 -4 -5 -9 -17 -9 -17 -2 -19 0 -7 7 18 12 18 12 24 2z
m69 1 c3 -5 -6 -9 -20 -10 -19 -1 -22 1 -12 8 17 11 26 11 32 2z m51 -1 c2 -4
-5 -9 -17 -9 -17 -2 -19 0 -7 7 18 12 18 12 24 2z m69 1 c3 -5 -6 -9 -20 -10
-19 -1 -22 1 -12 8 17 11 26 11 32 2z m53 -5 c3 -4 -1 -5 -10 -4 -8 1 -18 5
-22 8 -3 4 1 5 10 4 8 -1 18 -5 22 -8z m84 2 c0 -5 -5 -10 -11 -10 -5 0 -7 5
-4 10 3 6 8 10 11 10 2 0 4 -4 4 -10z m235 0 c3 -5 1 -10 -4 -10 -6 0 -11 5
-11 10 0 6 2 10 4 10 3 0 8 -4 11 -10z m345 6 c0 -3 -4 -8 -10 -11 -5 -3 -10
-1 -10 4 0 6 5 11 10 11 6 0 10 -2 10 -4z m56 -8 c3 -4 -1 -5 -10 -4 -8 1 -18
5 -22 8 -3 4 1 5 10 4 8 -1 18 -5 22 -8z m59 3 c-9 -8 -36 -10 -30 -2 2 4 11
8 20 8 8 0 13 -3 10 -6z m45 -1 c0 -5 -2 -10 -4 -10 -3 0 -8 5 -11 10 -3 6 -1
10 4 10 6 0 11 -4 11 -10z"/>
<path d="M5100 2320 c0 -5 5 -10 11 -10 5 0 7 5 4 10 -3 6 -8 10 -11 10 -2 0
-4 -4 -4 -10z"/>
<path d="M5120 2300 c-9 -6 -10 -10 -3 -10 6 0 15 5 18 10 8 12 4 12 -15 0z"/>
<path d="M5032 1981 c-11 -7 -11 -9 0 -14 9 -3 15 1 15 9 0 8 -1 14 -1 14 -1
0 -7 -4 -14 -9z"/>
<path d="M5579 1953 c-13 -16 -12 -17 4 -4 16 13 21 21 13 21 -2 0 -10 -8 -17
-17z"/>
<path d="M5013 1954 c4 -4 2 -13 -5 -21 -6 -7 -8 -16 -5 -20 4 -3 2 -12 -4
-19 -8 -10 -6 -12 9 -9 12 2 26 -3 32 -11 7 -7 16 -11 22 -8 5 3 16 0 24 -7 8
-6 17 -9 20 -6 3 3 -8 13 -26 22 -18 9 -30 19 -27 21 3 3 19 -2 36 -10 23 -12
31 -13 37 -3 4 6 4 9 -1 5 -9 -9 -65 19 -65 32 0 6 -4 10 -10 10 -5 0 -7 -8
-4 -17 5 -15 3 -15 -10 1 -11 14 -13 22 -5 27 7 4 4 9 -7 13 -10 4 -15 4 -11
0z m27 -59 c18 -22 20 -25 4 -12 -11 9 -23 15 -25 12 -3 -2 -6 5 -6 17 -1 11
-1 19 0 17 1 -2 13 -17 27 -34z"/>
<path d="M5070 1943 c0 -5 5 -15 10 -23 7 -12 9 -10 7 8 -1 19 -17 33 -17 15z"/>
<path d="M5455 1940 c-3 -5 -1 -10 4 -10 6 0 11 5 11 10 0 6 -2 10 -4 10 -3 0
-8 -4 -11 -10z"/>
<path d="M5513 1935 c-8 -22 5 -31 20 -15 10 10 9 11 -2 5 -11 -6 -13 -4 -8 8
3 10 4 17 1 17 -2 0 -7 -7 -11 -15z"/>
<path d="M5569 1927 c-1 -4 -3 -11 -4 -17 -1 -5 -3 -13 -4 -17 -1 -5 -5 -1
-11 7 -8 12 -10 12 -16 -3 -6 -17 -8 -17 -25 -1 -11 10 -19 12 -19 6 0 -7 5
-12 11 -12 5 0 8 -4 4 -9 -5 -10 -22 -9 -60 4 -18 6 -19 6 -2 -5 24 -16 67
-23 67 -11 0 5 8 8 18 6 9 -1 22 2 29 7 7 5 16 7 21 4 10 -6 9 30 -1 40 -4 4
-8 4 -8 1z"/>
<path d="M5455 1911 c-6 -11 13 -26 22 -17 4 3 1 6 -6 6 -7 0 -9 5 -6 10 3 6
4 10 1 10 -3 0 -7 -4 -11 -9z"/>
<path d="M5136 1875 c-3 -9 3 -19 17 -25 19 -10 20 -9 6 2 -9 7 -14 19 -12 26
6 17 -4 15 -11 -3z"/>
<path d="M5346 1882 c-3 -5 1 -9 9 -9 8 0 12 4 9 9 -3 4 -7 8 -9 8 -2 0 -6 -4
-9 -8z"/>
<path d="M5410 1866 c0 -2 7 -9 15 -16 13 -11 14 -10 9 4 -5 14 -24 23 -24 12z"/>
<path d="M7183 3346 l-28 -24 -3 -876 -2 -876 -60 0 -60 0 0 -150 0 -150 123
-2 c67 0 127 -1 134 -1 6 0 13 -8 16 -18 3 -10 1 -17 -5 -16 -5 1 -27 -42 -48
-96 l-39 -98 170 3 c93 2 169 7 169 12 0 5 7 3 15 -4 13 -11 14 -10 8 6 -6 17
-5 17 11 5 14 -12 19 -12 29 -1 9 10 9 11 -1 5 -8 -4 -22 1 -34 12 -12 10 -18
12 -14 6 4 -7 4 -14 -1 -14 -36 -6 -53 -5 -53 3 0 5 9 6 20 3 11 -3 20 -2 20
3 0 13 -29 24 -42 15 -7 -4 -8 -1 -4 6 5 7 14 10 21 7 7 -2 18 1 24 7 9 9 11
8 6 -4 -3 -9 -1 -16 7 -16 7 0 21 -4 31 -8 13 -5 18 -4 17 6 -4 27 0 40 10 34
6 -4 8 -11 5 -16 -3 -5 1 -6 9 -3 13 5 12 9 -8 25 -13 10 -28 19 -33 19 -4 0
-1 -5 7 -10 9 -6 10 -10 3 -10 -7 0 -10 -10 -8 -23 l4 -22 -17 21 c-10 11 -24
24 -32 28 -8 3 -2 4 15 0 l29 -5 -19 21 c-21 23 -28 47 -15 55 5 3 7 -3 5 -12
-1 -10 2 -23 7 -30 10 -13 41 -6 33 7 -3 5 -1 11 5 15 6 4 8 11 4 16 -8 14 16
40 29 32 6 -4 8 0 4 11 -4 10 -3 15 3 11 6 -3 10 0 10 7 0 8 5 6 11 -5 6 -9
14 -15 19 -12 5 3 11 1 15 -5 8 -13 25 -13 25 1 0 5 -4 8 -9 4 -5 -3 -12 -1
-16 5 -4 6 -11 7 -17 4 -6 -4 -8 -3 -5 2 7 12 48 11 67 -1 9 -5 11 -4 6 3 -4
7 -2 12 3 12 6 0 11 -6 11 -12 0 -9 3 -9 8 -2 8 13 -39 12 1002 13 l835 1 -2
138 c-1 75 -2 143 -2 150 -1 8 -19 12 -56 12 l-55 0 -1 53 c0 28 0 422 0 875
l1 823 -25 25 -24 24 -1120 0 -1120 0 -28 -24z m1882 -393 c-3 -21 -21 -108
-40 -193 -18 -85 -41 -192 -51 -238 -21 -98 -20 -97 -164 -133 -123 -30 -300
-33 -405 -6 -39 10 -76 21 -82 25 -9 6 -4 41 21 137 18 72 46 184 61 250 14
66 28 125 30 132 3 8 24 6 76 -8 135 -35 348 -16 479 44 77 35 82 34 75 -10z
m-105 -586 c0 -2 -22 -98 -50 -213 -27 -115 -50 -217 -50 -226 0 -10 -4 -18
-10 -18 -5 0 -7 -6 -4 -14 4 -10 -9 -19 -43 -29 -208 -68 -355 -69 -546 -6
-38 12 -71 28 -74 35 -2 7 16 95 40 196 25 100 49 201 54 223 10 46 7 45 118
16 131 -35 286 -33 430 6 33 9 68 17 77 18 10 0 21 4 24 8 7 7 34 10 34 4z
m-930 -247 c0 -5 -5 -10 -11 -10 -5 0 -7 5 -4 10 3 6 8 10 11 10 2 0 4 -4 4
-10z m-45 -19 c3 -5 2 -12 -3 -15 -5 -3 -9 1 -9 9 0 17 3 19 12 6z m70 -40
c-6 -5 -25 10 -25 20 0 5 6 4 14 -3 8 -7 12 -15 11 -17z m60 19 c3 -6 -1 -7
-9 -4 -18 7 -21 14 -7 14 6 0 13 -4 16 -10z m-125 -20 c0 -5 -5 -10 -11 -10
-5 0 -7 5 -4 10 3 6 8 10 11 10 2 0 4 -4 4 -10z m119 -3 c6 -8 8 -16 6 -19 -3
-3 -8 -16 -10 -28 -3 -13 -10 -28 -16 -34 -9 -8 -9 -6 0 11 9 18 8 24 -6 33
-17 11 -17 11 0 6 22 -7 20 26 -3 36 -13 6 -13 7 1 7 9 1 22 -5 28 -12z m-56
-37 c-19 -33 -30 -38 -30 -15 0 8 4 12 9 9 5 -4 12 3 15 15 3 12 10 21 15 21
5 0 1 -13 -9 -30z m-52 -13 c-10 -9 -11 -8 -5 6 3 10 9 15 12 12 3 -3 0 -11
-7 -18z m77 -9 c-2 -6 -10 -13 -16 -14 -7 -1 -8 0 -2 3 5 2 8 9 4 14 -3 5 0 9
6 9 7 0 10 -5 8 -12z m-473 -767 c-6 -5 -25 10 -25 20 0 5 6 4 14 -3 8 -7 12
-15 11 -17z m-260 9 c3 -6 -1 -7 -9 -4 -18 7 -21 14 -7 14 6 0 13 -4 16 -10z
m-14 -37 c13 -16 12 -17 -3 -4 -10 7 -18 15 -18 17 0 8 8 3 21 -13z m263 2 c3
-8 1 -15 -4 -15 -6 0 -10 7 -10 15 0 8 2 15 4 15 2 0 6 -7 10 -15z m-313 -28
c-10 -9 -11 -8 -5 6 3 10 9 15 12 12 3 -3 0 -11 -7 -18z m183 -35 c3 -5 -1 -9
-9 -9 -8 0 -12 4 -9 9 3 4 7 8 9 8 2 0 6 -4 9 -8z m-177 -17 c0 -8 -4 -12 -9
-9 -5 3 -6 10 -3 15 9 13 12 11 12 -6z m-17 -59 c0 -3 -4 -8 -10 -11 -5 -3
-10 -1 -10 4 0 6 5 11 10 11 6 0 10 -2 10 -4z m40 -6 c0 -5 -5 -10 -11 -10 -5
0 -7 5 -4 10 3 6 8 10 11 10 2 0 4 -4 4 -10z"/>
<path d="M894 3351 c-2 -2 -16 -4 -31 -5 -18 -1 -27 -6 -25 -14 1 -8 -2 -11
-7 -8 -5 3 -16 -5 -25 -19 -14 -22 -16 -110 -16 -880 l0 -855 -27 -1 c-16 -1
-36 -1 -45 0 -11 2 -18 -5 -19 -16 -1 -21 -1 -276 0 -283 1 -3 607 -5 1349 -5
l1347 1 1 150 0 150 -28 -1 c-15 -1 -30 -4 -33 -6 -11 -12 -73 4 -77 19 -2 10
-4 68 -4 129 1 69 -3 113 -9 113 -7 0 -7 3 0 8 13 9 13 461 1 481 -6 9 -5 12
1 8 12 -8 11 92 -2 112 -5 9 -4 12 2 8 12 -8 11 212 -1 232 -6 9 -5 12 1 8 11
-7 12 81 0 99 -3 6 -3 14 1 18 10 11 10 88 -1 110 -5 11 -5 16 0 13 11 -7 11
88 1 99 -4 4 -4 14 0 23 5 9 7 69 6 134 -1 118 -1 119 -32 150 -29 28 -36 30
-107 31 -42 1 -79 -2 -82 -7 -2 -4 -9 -4 -16 0 -19 12 -257 11 -257 -1 0 -8
-3 -8 -8 -1 -10 15 -54 17 -46 3 5 -7 2 -8 -7 -2 -20 13 -1512 12 -1521 -1 -5
-6 -8 -5 -8 3 0 6 -7 12 -16 12 -9 0 -12 -5 -8 -12 5 -7 3 -8 -7 -2 -13 8
-236 13 -245 5z m1791 -478 c-13 -54 -40 -174 -60 -268 -20 -93 -40 -173 -43
-176 -4 -4 -32 -14 -63 -23 -198 -56 -343 -62 -480 -20 -49 15 -89 32 -89 38
0 6 5 27 10 46 8 27 75 307 105 437 5 21 6 21 52 5 34 -11 88 -16 183 -16 120
0 146 3 237 29 56 16 99 33 96 39 -3 5 -1 6 5 3 5 -4 21 -3 34 2 12 5 26 7 29
5 4 -2 -4 -47 -16 -101z m-575 -563 c117 -20 285 -2 438 45 15 5 22 3 21 -6 0
-8 -24 -117 -52 -244 l-52 -229 -103 -28 c-128 -33 -220 -42 -309 -28 -96 15
-214 51 -220 67 -3 8 2 42 11 76 8 34 29 121 46 192 17 72 35 146 40 166 l10
37 48 -18 c26 -10 81 -23 122 -30z m-346 -628 c3 -5 -1 -9 -9 -9 -8 0 -12 4
-9 9 3 4 7 8 9 8 2 0 6 -4 9 -8z"/>
<path d="M7656 1235 c-3 -9 -10 -13 -16 -10 -5 3 -11 1 -11 -4 -2 -14 -6 -30
-9 -33 -11 -15 -4 -38 17 -47 15 -7 22 -7 18 -1 -3 5 -1 10 6 10 8 0 7 5 -2
16 -12 15 -11 16 11 11 14 -4 19 -4 12 -1 -6 3 -10 10 -7 15 4 5 0 6 -8 3 -19
-7 -32 12 -16 22 8 5 9 3 4 -7 -7 -12 -6 -12 7 -1 14 12 19 9 32 -15 l15 -28
-3 30 c-2 17 -9 30 -15 30 -6 0 -15 6 -20 13 -7 11 -9 10 -15 -3z m-15 -52
c-11 -4 -11 -7 0 -14 7 -4 10 -11 6 -16 -9 -9 -28 17 -21 29 3 4 11 8 17 7 8
0 7 -3 -2 -6z"/>
<path d="M7655 1089 c-4 -6 -5 -12 -2 -15 2 -3 7 2 10 11 7 17 1 20 -8 4z"/>
</g>
</svg>
